<?xml version="1.0" encoding="utf-8"?>
<!-- Generator: Adobe Illustrator 24.1.1, SVG Export Plug-In . SVG Version: 6.00 Build 0)  -->
<svg version="1.1" id="Capa_1" xmlns="http://www.w3.org/2000/svg" xmlns:xlink="http://www.w3.org/1999/xlink" x="0px" y="0px"
	 viewBox="0 0 640 480" style="enable-background:new 0 0 640 480;" xml:space="preserve">
<g>
	<path d="M54.8,289.1c-2.4-8.2-3.1-15.5-2.6-22.9c0.9-12.8,3.8-25.4,7.1-37.8c1.7-6.2,4.3-12.1,9.7-15.9
		c20.4-14.3,36.2-33.5,54-50.4c3.1-3,6.3-5.9,9.4-8.9c14.4-13.9,33.1-17.7,51.6-22.4c19.1-4.8,38.4-6.3,58-6.2
		c29.5,0.1,59-0.1,88.4,2.4c15.3,1.3,30.5,2.9,45.6,5.9c6.6,1.3,12.8,3.7,18.6,7.1c12.8,7.5,25.7,14.8,38.3,22.7
		c8.2,5.1,16.7,8.8,26.5,9.2c3.3,0.1,6.5,1.1,9.8,1.9c3.9,0.9,6.7,3,7.1,7.3c0.2,3,2.3,3.6,4.8,4c19.7,3.3,39.4,6.7,58.6,12.7
		c9.6,3,18.8,6.7,27.9,10.8c3.2,1.4,4.4,3.6,4.5,7c0.1,8.2,0.7,16.3-0.9,24.4c-0.7,3.4,0.6,4,3.3,2.6c2.1-1.1,4.2-2.1,5.9-3.7
		c3-2.7,4.7-2.6,5.6,1.6c1.7,7.3,2.9,14.7,3.3,22.2c0.2,4.3-1.4,6.3-5.5,7.3c-10.9,2.6-21.7,5.4-32.5,8.1c-1.9,0.5-3.8,1.1-5.6,1.6
		c-0.1,1.5,0.9,1.6,1.6,1.8c10.1,3.7,16.2,11.4,20.4,20.8c1.5,3.4,3.7,4.8,7.3,4.6c3.5-0.2,7,0,10.5,0.2c2.5,0.2,3.9,1.7,2.7,4.1
		c-3.2,6.3-5.2,13.6-13.1,16c-0.7,0.2-1.6,0.8-2,1.4c-3,5.4-7.2,9.9-11.2,14.9c2.9,2.1,6.6-0.1,9.7,2.7c-5.7,2.3-11.2,2.2-16.4,2.7
		c-30.2,2.7-60.5,3.9-90.8,5.3c-68.8,3.2-137.6,3.4-206.4,2.6c-42.5-0.5-84.9-1.5-127.4-4c-19.4-1.2-38.9-2.1-58.2-4.8
		c-2.5-0.4-5.2-0.2-7.4-2.1c0.4-0.5,0.5-0.9,0.7-1c2.1-1.2,5.8,1.2,6.5-1.6c0.4-1.8-2.1-4.3-3.4-6.4c-8.1-13.4-8.4-28.1-7.8-43.1
		c0.4-10.9,2.3-21.4,7.7-31.2c9.6-17.7,22.6-18.5,33.8-1.9c2.6,3.9,4.4,8.2,6.5,12.7c1.1-9.8-8.4-27.2-16.8-31.1
		c-6.6-3.1-16.2-0.5-21.6,6.2c-7.8,9.7-12.2,20.9-13.8,33.3C56.8,283.9,57.3,286.2,54.8,289.1z M306.3,141.6
		c2.9,0.4,5.9,0.8,8.8,1.3c12.4,2,24.8,4,34.1,13.7c5.1,5.3,10.4,10.3,15.6,15.5c1.2,1.3,3.5,2.6,2.8,4.4c-0.8,2.2-3.5,1.4-5.4,1.4
		c-19.5,0.4-39,0.7-58.5,1.3c-8.3,0.2-16.7,0.9-25,1.3c17.3,1.3,34.5,2.6,51.7,4.1c17.4,1.5,34.8,3.5,52.1,6.3
		c16.9,2.8,33.7,6.2,50.5,9.4c-12.2-6.3-25.4-9.6-38.3-13.8c34.3,1.1,68.1,6.3,101.6,13.6c-2-1.4-4-2.5-6.1-3.4
		c-12.5-5.1-25.4-9.1-38.7-11.7c-4.4-0.9-8.7-2-12.7-4.4c-12.7-7.7-25.4-15.3-38.2-22.7c-8.3-4.8-16.5-10.1-26.3-11.7
		C351.8,142.7,329.2,141.5,306.3,141.6z M315.5,264.9c-2.4-15.3-7.4-29.2-20.7-38.8c-10.9-7.8-23.5-7.2-33.3,2
		c-13.8,13.1-20.8,29.3-22.6,48.1c-0.9,9.3-0.6,18.7,0.3,27.9c0.5,5.2-1.6,5.8-5.8,5.8c-19.5-0.1-39,0-58.5,0.1
		c-18.1,0.1-36.2,1.1-54.2,2.4c30.3,1.8,60.6,3,90.9,3.5c8.3,0.1,16.6,0.4,25,0.7c3.5,0.1,6.5,3.5,6.2,7c-0.3,3.7-3.4,2.4-5.4,2.6
		c-4.5,0.4-9,0.6-13.5,0.6c-22.2,0.1-44.3,0-66.5,0.1c-2.3,0-5-0.7-6.4,1.8c-2.7,5.1-5.7,10-9.9,14.2c2.2,1.2,3.9,0.8,5.5,0.8
		c14.8,0,29.7,0.2,44.5,0c21.7-0.3,43.3,0.5,65-0.7c3.4-0.2,5.5-0.5,2.7-4.4c-8.9-12.2-13.4-26-14.4-40.9
		c-1.4-20.9,2-40.6,15.5-57.4c11.5-14.2,26-14.8,39.2-2.1C306.8,245.7,311.6,254.9,315.5,264.9z M215.8,194.5
		c-10.5-0.7-19.7-1.6-28.9-3.2c-3-0.5-5.9-1.5-7.4-4.5c-4.2-8.4,1.2-19.3,10.5-20.9c8.7-1.5,17.5-2.5,26.3-3.1
		c3.6-0.2,5-1.5,2.5-4.9c-2.9-4.1-5.7-8.2-8.3-12.5c-2.3-3.7-5.3-4.6-9.3-3.7c-8.4,1.9-17,3.3-25.4,5.5
		c-11.9,3.1-23.7,5.8-33.3,14.8c-13.5,12.6-26,26.3-38.8,39.6c-1,1.1-2.7,2.1-2,4.4C139.2,201.1,176.8,196.7,215.8,194.5z
		 M247.2,197.4c1.6,0.3,2.1,0.4,2.6,0.5c19.7,2,39.3,4.6,58.5,10c8,2.3,15.1,5.7,20.6,12.3c7.5,9.1,17.3,15,29,17.4
		c14.7,3.1,29.4,5.5,44.3,7.5c1.1,0.1,2.4,0.8,3.1-0.6c0.6-1-0.3-1.9-0.7-2.7c-6.3-12.4-15.2-21.4-29-25.6
		C334.1,203.6,292,196.9,247.2,197.4z M487.1,343.6c-3-4.3-5.9-7.8-7.9-11.7c-2-3.9-4.5-5-8.7-5c-32.7,0.1-65.3,0.4-98-0.1
		c-8.6-0.1-15.3,0.9-18.2,10c-0.3,0.9-1.1,1.7-1.7,2.5c-2.1,2.6-1.5,3.7,1.8,3.7c8.3-0.1,16.7,0,25,0.1c21.3,0.3,42.6-0.3,63.9,0.5
		C457.7,344.1,472,343.6,487.1,343.6z M308,291.2c-0.1-12-2.1-23.6-8-34.2c-4.4-7.9-10.3-14.5-20-14.4c-9.5,0.1-15,7.1-19.4,14.7
		c-4.5,7.8-6.3,16.4-7.1,25.3c-1.6,17.3,1.3,33.6,12.3,47.6c8.9,11.3,20.8,11.1,29.9,0.1C305.2,318.9,307.9,305.4,308,291.2z
		 M429.7,281.1c-0.7-0.6-0.9-0.9-1.2-1c-20-5-40.2-9.3-60.9-10.7c-13.4-0.9-23.9,4.4-31,16.2c-3,5-5.2,10.4-7.5,15.8
		c-1.7,3.9-0.6,5.5,3.7,5.5c20.5-0.1,41,0,61.4,0c2.1,0,3.9-0.5,5.2-2.3C407.3,294,416.2,284.7,429.7,281.1z M414,225.5
		c0.1,14.7,13.3,31.8,27.6,36.2c9.1,2.8,18.5,4,27.9,5.9c8.7,1.7,17.5,4.8,26.1,4.3c16.4-1,32.6-4.7,48.1-10.9
		c1.7-0.7,3.1-1.9,4.6-3c10.6-8.2,16.2-25.5,11.8-36.2c-0.6-1.5-1-3.6-3.3-2.6c-1.7,0.6-1.1,2.1-0.8,3.4
		c3.6,15.1-6.1,31.7-21.1,35.8c-6.6,1.8-13.3,3.2-20,4.6c-6.5,1.4-13.1,3.7-19.7,3c-18.2-2-36.3-5-54-10.1
		c-12-3.5-23-20.7-21.8-32.8c0.2-1.7,0.7-3.5-1.8-3.7c-2.1-0.2-3,1.3-3.2,3.1C414.1,223.7,414.1,225,414,225.5z M102.9,300.1
		c0-3.8,0.2-7.7,0-11.5c-0.5-7.6-2.4-14.9-6.8-21.1c-6.6-9.5-14.2-9.1-20.3,0.7c-8.3,13.2-8.5,27.8-7,42.5
		c0.7,6.9,3.1,13.3,6.7,19.2c6.6,10.9,15.2,10.6,21.7-0.4c0.3-0.6,0.6-1.2,1-1.8C103.3,319.1,103.3,309.6,102.9,300.1z M511.8,235
		c0-9.2-7.4-17-16.1-16.9c-8.6,0.1-14.6,6.9-14.6,16.8c0,9.5,6.5,16.8,15.2,16.9C504.9,251.9,511.8,244.4,511.8,235z M96.2,222.1
		c33.2-3.7,65.8-5.3,98.4-7.6c-7.9,0-15.6-1-22.9-4.4c-2.9-1.3-6.2-1.6-8.5,0.8c-4.3,4.5-9.7,5.4-15.4,5.7
		c-8.5,0.4-16.9,1.1-25.4,1.5c-3.3,0.2-6.6,0.3-9.8-1C104.5,213.8,103.1,214.3,96.2,222.1z M241.9,149.4c-2.3,0-2.4,1.1-1.4,2.5
		c3.7,5.5,7.4,11,11.1,16.5c1.3,1.9,2.7,2,3.6-0.3c1.5-3.7,2.8-7.5,4.1-11.2c0.7-1.9-0.2-3.3-2.1-3.8
		C252.1,151.8,246.9,150.7,241.9,149.4z M463.2,229.6c2.2,0,4.3,0.1,6.5,0c1.5-0.1,2.6-0.9,2.7-2.4c0.1-1.9-1.5-2-2.8-2
		c-12.6,0-25.3,0-37.9,0c-1.4,0-3.5-0.1-3.4,2c0.1,2,2.2,1.6,3.6,1.7C442.2,229.3,452.7,228.6,463.2,229.6z M437.8,242.3
		c-0.1,0.4-0.2,0.8-0.3,1.2c1,0.5,1.9,1.3,3,1.6c10,2.4,20.3,2.4,30.6,2.6c1.2,0,2.5-0.5,2.3-2c-0.2-2-1.2-3.5-3.5-3.5
		C459.2,242.2,448.5,242.3,437.8,242.3z M210.7,295.6c-26.7-1.9-53.4-3.4-81.5-1.4C157.3,296.6,184,296,210.7,295.6z M533.5,225.1
		c-3.5,0-7-0.1-10.5,0c-1.2,0-3-0.3-3.2,1.6c-0.1,1.7,1.5,2,2.8,2.1c7.3,0.7,14.6,1.1,22,0.7c1.4-0.1,2.8-0.3,2.9-2
		c0.1-2.1-1.5-2.4-3.1-2.4C540.9,225.1,537.2,225.1,533.5,225.1z M541.7,242.3c-6.6,0-13-0.1-19.4,0c-2.2,0-3.3,1.9-3.2,3.8
		c0.1,2.7,2.5,1.7,3.9,1.5c4.8-0.5,9.5-1.2,14.3-2C539,245.4,540.9,245.1,541.7,242.3z"/>
	<path d="M589.8,287.4c0,13.4,1.6,11.5-12,11.8c-3.4,0.1-5.7-0.9-6.9-4.2c-1.6-4.3-4.8-7.5-7.9-10.7c-2.3-2.4-2-4,1.5-4.7
		c7-1.4,14-2.8,21-4.2c3.2-0.7,4.3,0.9,4.4,3.7C589.9,281.8,589.8,284.6,589.8,287.4z"/>
	<path d="M163,190.9c-4.3,0.5-5.1-1.1-4.1-4.1c3.7-11.2,8.4-22.1,13.4-32.8c1.1-2.3,8-4.7,10.2-3.8c1.8,0.7,1.3,2.2,0.9,3.4
		c-4.1,11.4-8.1,22.9-12.4,34.3C169.3,191.8,165,189.9,163,190.9z"/>
	<path d="M139.9,170.7c-0.1,4.2-3.1,6.8-4.8,10.8c5.3,1,10.4,0.2,15.4,0.4c1.8,0.1,4.7-1,4.6,2.1c-0.1,2.9,0.5,7.2-3.5,7.9
		c-11,2-22,3.6-33.1,4.3c-1.3,0.1-3.4-0.1-1.9-2.1C123.2,185.3,131.4,177.8,139.9,170.7z"/>
	<path d="M304.1,289.5c-0.3,8.9-1.6,15.9-3.7,22.8c-0.4,1.4-0.6,3.3-2.5,3.3c-1.8,0-2.1-1.9-2.7-3.2c-2.5-5.8-4.8-11.7-7.3-17.5
		c-1.4-3.2-1.1-6,1.1-8.8c3-4,5.7-8.2,8.6-12.2c0.7-1,1.5-2.5,3.1-2c1.2,0.4,1.4,1.8,1.5,2.9C303,280.3,303.7,285.7,304.1,289.5z"/>
	<path d="M271.6,284.1c-1.8-0.2-4.8-0.6-7.7-0.9c-6.9-0.7-7.1-1-5.6-7.5c1.9-8.2,4.9-15.9,10.7-22.2c0.9-0.9,1.7-2.3,3.3-1.9
		c1.5,0.4,1.5,2.1,1.7,3.3c1.3,7.9,2.5,15.7,3.8,23.6C278.5,283.9,278,284.4,271.6,284.1z"/>
	<path d="M280.4,332.3c-7-0.6-10.7-2.1-7.5-10.2c2.6-6.5,4.8-13.1,7.2-19.7c0.5-1.2,0.9-2.8,2.3-3c1.9-0.3,2.4,1.6,2.9,2.9
		c2.7,6.1,5.2,12.2,7.9,18.4c0.9,2.1,0.6,3.8-0.9,5.5C289.3,329.9,285.5,332.4,280.4,332.3z"/>
	<path d="M256.8,293c-0.7-3.7,0.8-5,4.4-4.3c4.4,0.9,8.8,1.7,13.2,2.6c2.7,0.5,3.6,2.2,2.7,4.8c-2.7,8-5.4,16-8.1,24
		c-0.4,1-0.6,2.5-2.2,2.3c-1.3-0.1-1.8-1.3-2.4-2.3C259.9,311.6,257.9,302.4,256.8,293z"/>
	<path d="M281.5,248.4c5.4,0.7,14.5,8.4,15.8,13.5c0.2,0.9,0.3,2.1-0.1,2.9c-2.9,5.8-6.9,11-11.2,15.8c-1.6,1.8-2.7,0.7-3.1-1
		c-2.2-9.2-3.9-18.6-5-28C277.6,249,278.9,247.9,281.5,248.4z"/>
	<path d="M362,299.2c-6.8,0-13.6-0.1-20.5,0c-3.3,0-4.5-0.9-3.4-4.4c4.1-12.4,13.9-19.6,27-19.7c11.5-0.1,22.8,2.2,34.1,4.2
		c1.1,0.2,2.6,0.2,3,1.4c0.5,1.6-1,2.3-2,3.1c-4.4,3.6-8.5,7.5-11.5,12.4c-1.5,2.5-3.6,3.1-6.3,3.1
		C375.6,299.1,368.8,299.2,362,299.2z"/>
	<path d="M84.2,291.8c0.3,3.1-1.1,4.4-4.2,4c-1.8-0.3-3.6-0.5-5.4-0.8c-2.4-0.4-3.4-1.8-3.1-4.2c0.9-6.8,3-13.3,6.6-19.2
		c0.4-0.7,0.8-1.6,1.8-1.4c1,0.2,1.1,1.2,1.2,2C82.2,278.6,83.2,285.2,84.2,291.8z"/>
	<path d="M98.2,284.3c2.7,3.5,1.9,7,2.3,10.1c0.9,6.8-0.1,13.6-1.2,20.3c-0.2,0.9-0.3,2.2-1.5,2.4c-1.3,0.2-1.5-1.1-1.9-1.9
		c-1.8-3.9-3.6-7.9-5.3-11.8c-0.5-1.2-0.9-2.6-0.4-3.9C92.3,294.2,95.1,289.5,98.2,284.3z"/>
	<path d="M75.8,300.5c0.2,0,1.5,0.4,2.8,0.5c4.8,0.5,6.1,2.9,4.7,7.4c-1.5,4.7-2.5,9.6-3.8,14.4c-0.3,1.1-0.5,2.5-2,2.5
		c-1.1,0-1.5-1.2-1.9-2.1c-3.3-6.3-4.1-13.2-4.1-20.2C71.5,300.9,72.6,300,75.8,300.5z"/>
	<path d="M81.5,327.1c1.4-4.7,3-10.3,4.7-15.8c0.8-2.4,2.4-2.3,3.5-0.3c2.1,3.6,4.2,7.2,5.7,11.1c1.5,4.1-5.5,11.7-9.8,10.8
		C83.1,332.3,81.3,331,81.5,327.1z"/>
	<path d="M96.7,277.9c-1.2,4.4-3.5,8.8-6.8,12.6c-1.5,1.7-2.4,0.1-2.6-1.2c-1.2-7-2.4-14.1-3.4-21.1c-0.3-2.2,0.9-3,3.1-2.5
		C90.6,266.3,96.7,273.6,96.7,277.9z"/>
</g>
</svg>
