<?xml version="1.0" encoding="utf-8"?>
<!-- Generator: Adobe Illustrator 24.1.1, SVG Export Plug-In . SVG Version: 6.00 Build 0)  -->
<svg version="1.1" id="Capa_1" xmlns="http://www.w3.org/2000/svg" xmlns:xlink="http://www.w3.org/1999/xlink" x="0px" y="0px"
	 viewBox="0 0 640 480" style="enable-background:new 0 0 640 480;" xml:space="preserve">
<style type="text/css">
	.st0{fill:#FFFFFF;}
</style>
<g>
	<path d="M372.4,60.3c1.3,0,2.7,0,4,0c0.7,0.3,1.5,0.6,2.1,1.1c5.4,3.8,8.5,9.1,10,15.4c0.4,1.9,0.5,3.9,1.9,5.6
		c2.9,3.9,5.6,7.9,8.3,11.9c0.4,0.6,0.8,1.2,1.3,2c0.1-1.6,0.2-2.8,0.3-4.2c1.9-0.1,3.7-0.2,5.6-0.3c3.9-0.3,7.5,0.6,10.7,2.9
		c0.5,0.4,1.1,1.2,1,1.7c-0.4,2.9-1,5.7-1.4,8.6c-0.2,1.5-1.1,2-2.4,2.1c-0.7,0.1-1.4,0-2.1,0c-0.7,0-1.5,0-2.2,0
		c-0.1,0.2-0.3,0.4-0.4,0.6c0.7,0.5,1.4,1.1,2.2,1.5c3.5,2,6.2,4.9,8.4,8.3c0.2,0.3,0.7,0.6,1,0.6c1.7-0.5,3.3-1.1,5.1-1.7
		c-1.5-1.8-2.8-3.5-4.2-5c-0.7-0.8-0.8-1.5-0.2-2.3c3.7-5.1,7.3-10.3,11-15.4c0.5-0.7,1.2-1.4,1.9-2.1c0.2,0.4,0.3,0.6,0.4,0.8
		c3.7,7.8,7.3,15.7,11,23.5c0.7,1.6,1.8,2.8,3.5,3.3c0.4,0.1,0.8,0.3,1.2,0.5c9.1,4.4,17.2,10.2,24.6,16.9c2.1,1.9,4,4.1,6,6.1
		c0.8,0.8,0.6,1.5-0.2,2.1c-0.9,0.7-1.9,1.3-2.7,2.1c-0.6,0.6-1.1,1.4-1.2,2.1c-0.2,1.3-0.1,2.7-0.1,4c0,5.4,0.2,10.8,0.1,16.2
		c-0.1,3,0.6,5.8,1.6,8.5c0.6,1.6,1.2,3.1,1.9,4.7c0.2,0.5,0.3,1,0.5,1.5c-7,0-13.8,0-20.3,0c0.4,2.3,1,4.6,0.9,6.9
		c0,1.5,0,2.9,0.6,4.3c3.1,7.5,6.2,15,9.3,22.5c1.6,3.9,3.3,7.8,5,11.8c15.3-4.6,30.5-4.7,46.1-1.1c-3,2-6,4-9.1,6.1
		c0.5,0.1,0.9,0.2,1.3,0.3c4.2,1.1,8.4,1.9,12.4,3.4c14.3,5.3,25.8,14.2,34.7,26.5c11.8,16.3,16.1,34.7,13.7,54.6
		c-1.4,12.2-5.8,23.2-12.7,33.3c-7.4,10.8-16.8,19.4-28.6,25.4c-12.6,6.5-26.1,8.4-40.1,7.4c-9.3-0.7-18-3.2-26.3-7.4
		c-15.7-7.9-27.4-19.9-35.2-35.6c-6.1-12.2-8.3-25.2-7.4-38.8c1-13.5,5.2-25.9,12.4-37.3c1.6-2.5,3.3-4.9,5.1-7.3
		c-1.8-0.9-3.4-2-5.3-2.6c-2.4-0.8-3.5-2.5-4.4-4.7c-2.9-7.2-2.8-14.5-1.2-21.9c1.8-8.4,5.5-16.1,9.7-23.5c0.7-1.2,1.1-2.5,1.8-3.9
		c-3.8-0.1-6.1-1.9-7.4-5.1c-0.1-0.3-0.3-0.5-0.5-0.7c-1-1-1.7-0.8-2.1,0.5c-5.1,18.1-10.1,36.2-15.2,54.3
		c-1.1,3.8-2.2,7.6-3.3,11.5c-4.6-3.8-9-7.4-13.7-11.3c0.3,2.8-0.5,4.8-2.1,6.5c-2.6,2.8-5.1,5.6-7.8,8.3c-2.8,2.9-4,6.1-3.5,10.2
		c1.5,10.1,2.9,20.2,4.1,30.3c0.5,3.6,1.5,6.8,4.2,9.4c0.4,0.4,0.8,1,1.2,1.4c2.6,3.1,5.3,6.1,7.9,9.3c2.2,2.7,2.3,4.2,0.4,6.7
		c-1.6,2.1-3.2,4.1-4.9,6.2c-0.9,1.2-2.2,1.8-3.7,1.9c-2.7,0.2-5.3,0.4-8,0.6c-2.8,0.2-5.5,0.4-8.3-0.7
		c-15.5-6.2-31.1-12.4-46.7-18.5c-2.4-1-1.8-1.2-3.3,1c-2.2,3.1-3.6,3.4-6.6,1.1c-0.1-0.1-0.2-0.1-0.4-0.1c-1,1.2-2,2.4-3.2,3.6
		c-0.4,0.4-1,0.7-1.5,0.8c-1.1,0.2-2.2,0.2-3.3,0.2c-7.5,0-14.9,0-22.4,0c-0.8,0-1.7-0.4-2.2-1c-1.6-1.7-3.1-3.5-4.6-5.3
		c-0.8-1-1.8-1.5-3.2-1.7c-9.1-1-18.1-2.1-27.2-3.2c-0.6-0.1-1.4-0.6-1.6-1.1c-0.5-1.1-1.2-1.7-2.3-2.2c-3.5-1.5-6.9-3.2-10.8-2.7
		c-3.1,0.4-5.7-0.7-8.3-2.2c-1.8-1.1-3.8-1.9-5.5-2.7c-9,37.1-31.8,59.6-68.9,67.5c6.5,0.3,12.9,0.6,19.4,0.8
		c5.7,0.2,11.5,0.4,17.2,0.6c8.3,0.3,16.5,0.6,24.8,0.8c6.5,0.2,13.1,0.4,19.6,0.6c8,0.3,15.9,0.6,23.9,1c4.6,0.2,9.2,0.3,13.8,0.5
		c7.3,0.3,14.6,0.6,21.9,1c4.4,0.2,8.9,0.3,13.3,0.5c7.3,0.3,14.6,0.7,21.9,1c6.5,0.3,13.1,0.5,19.6,0.8c6.4,0.3,12.9,0.6,19.3,1
		c5.3,0.3,10.6,0.5,15.9,0.7c7.4,0.3,14.8,0.7,22.2,1c4.3,0.2,8.7,0.3,13,0.5c6.4,0.3,12.8,0.7,19.2,0.9c5.8,0.3,11.6,0.4,17.3,0.7
		c7.2,0.3,14.3,0.7,21.5,1c3.9,0.2,7.7,0.3,11.6,0.5c7,0.3,13.9,0.6,20.9,1c5.6,0.2,11.3,0.4,16.9,0.7c7.9,0.3,15.8,0.7,23.8,1
		c4.5,0.2,9.1,0.3,13.6,0.5c6.7,0.3,13.5,0.6,20.2,0.9c3,0.1,6,0.4,9,0.6c-2.7,0-5.4,0-8,0c-0.3-0.1-0.6-0.1-1-0.2
		c-8.6-0.2-17.1-0.5-25.7-0.7c-8.8-0.2-17.6-0.4-26.4-0.5c-9.5-0.2-19-0.3-28.6-0.5c-7.7-0.1-15.5-0.3-23.2-0.4
		c-5.9-0.1-11.8-0.2-17.6-0.3c-5.9-0.1-11.9-0.2-17.8-0.3c-6.6-0.1-13.2-0.2-19.8-0.3c-10.1-0.1-20.2-0.3-30.3-0.4
		c-7.3-0.1-14.6-0.2-22-0.3c-7.6-0.1-15.1-0.2-22.7-0.3c-7.8-0.1-15.5-0.2-23.3-0.3c-11-0.1-21.9-0.2-32.9-0.3
		c-4.7,0-9.5-0.3-14.2-0.2c-9.7,0.1-19.4-0.6-29-1.5c-8.9-0.8-17.9-1.4-26.9-2.1c-11.2-0.9-22.5-1.9-33.7-2.8
		c-9.1-0.7-18.3-1.4-27.4-2.1c-12.3-1-24.6-2.1-36.8-3c-11.2-0.9-22.4-1.6-33.6-2.5c-8.6-0.6-17.2-1.3-25.8-2
		c-6.8-0.5-13.5-1-20.3-1.5c0-0.1,0-0.2,0-0.3c28.6,1,57.1,2.1,85.7,3.1c-0.6-0.4-1.2-0.5-1.8-0.6c-17.4-3.4-32.2-11.6-44.2-24.7
		c-7-7.6-12.2-16.4-15.6-26.2c-3.2-9-4.4-18.3-4.2-27.8c0.2-9,1.7-17.7,4.8-26.1c6.2-16.5,16.8-29.6,31.9-38.9
		c13.2-8.2,27.6-12.2,43.2-11.4c15.4,0.8,29.4,6,42,15c1.9,1.4,3.8,2.7,5.7,4c0-0.4-0.2-0.7-0.4-0.9c-5.2-4.5-10.5-9-15.7-13.4
		c-1.9-1.6-3.9-3.2-5.8-4.9c-0.9-0.8-1.2-1.8-0.3-2.9c0.9-1,1.8-0.8,2.8-0.3c6.8,3.6,13.7,7,20.5,10.7c6.1,3.3,12,6.7,18,10.1
		c0.7,0.4,1.4,0.9,2.3,1.5c-1.7-5.4,1.6-11,6-10.4c1.4-3.2,1.6-3.3,3.8-2.4c1.2-3.7,1.2-3.7,4.2-3.6c0.3-2.4,0.1-3-1.9-4.3
		c-3.5-2.3-7-4.5-10.5-6.7c-4.2-2.6-8.2-5.4-12.6-7.4c-9.5-4.4-19.2-8.5-28.7-12.7c-7.9-3.5-15.7-7-23.6-10.5c-1.5-0.7-3-1-4.7-0.5
		c-1.7,0.5-3.5,0.6-5.2,0.9c-11.7,2.1-23.4,4.2-35.2,6.3c-0.8,0.1-1.7,0.6-2.1,1.2c-2.1,3.2-4.9,5.6-7.8,7.9
		c-5.8,4.6-10.4,10.1-14,16.5c-2,3.6-4.4,7-6.6,10.4c-0.3,0.4-0.7,1-1.1,1c-2.4-0.2-4.9-0.4-7.5-0.7c6.8-12.7,13.3-25.1,20-37.6
		c-0.7-0.1-1.3-0.2-2-0.4c-3.5-0.8-5.2-3.4-4.5-6.6c0.6-2.7,3.5-4.2,6.7-3.5c5.4,1.2,10.8,2.5,16.2,3.6c1.6,0.3,3.2,0.4,4.8,0.2
		c5.9-0.9,11.8-1.9,17.7-3c3.6-0.6,7.2-1.3,11.2-2c-0.9-0.5-1.4-0.8-1.9-1c-7.2-3.2-14.5-6.4-21.7-9.7c-4.3-1.9-5-1.7-4.5-7.8
		c0.3-3.2,1.4-4.7,4.6-5.4c5-1.1,10.1-2,15.2-2.9c1-0.2,1.6-0.3,1.9-1.5c0.4-1.7,1.6-2.7,3.2-3.3c4.2-1.4,8.5-2,12.8-1.9
		c7.3,0.1,14.6,0.3,21.9,0.5c3.3,0.1,6.7,0.1,10,0.3c2.3,0.1,4.6,0.1,6.9,0.4c6.1,0.7,11.4,3.3,15.1,8.2c1.9,2.5,3.2,5.4,4.5,8.3
		c1.7,3.9,4.5,6.1,8.5,7.3c16.5,5,33.3,7.8,50.4,9.6c0.5,0.1,1.2-0.3,1.6-0.7c2.3-2.6,4.4-5.3,6.6-7.9c0.2-0.3,0.5-0.8,0.4-1.1
		c-0.8-3.8,0.7-6.6,3.4-9c9.3-8.3,18.7-16.6,28.7-24c8-6,16.7-10.6,26.5-12.9c8-1.9,16.1-2.1,24.2-1c9.1,1.2,17.9,3.7,26.3,7.4
		c7.8,3.5,14,9.1,19.4,15.6c1.3,1.6,2.7,3.1,4.2,4.8c0.5-1.6,0.9-2.9,1.3-4.3c0.5-1.8,0.5-3.6-0.5-5.3c-0.6-1.1-1-2.3-1.6-3.4
		c-1.3-2.5-1.9-5,0.3-7.4c0.1-0.1,0.1-0.2,0.1-0.3c0-0.5,0.1-1.2-0.2-1.5c-2.5-2.5-5-4.9-7.5-7.3c-3.7,2.7-2.5,2-6.5,1.9
		c-1.4,0-2.9-0.2-4.3-0.3c-2.2-0.3-4.5-0.5-6.7-0.9c-1.1-0.2-2-0.8-1.9-2.1c0.1-3.7-0.5-7.6,2.1-10.9c-4.1-2.7-8.2-5.5-12.3-8.2
		c-1.9-1.3-2.5-3.7-1.5-5.9c0.9-2,2.8-2.8,5.2-2.2c0.7,0.2,1.4,0.5,2,0.8c3.3,1.7,6.7,3.4,10,5c1.8,0.9,3.7,1.6,5.6,2.3
		c0.1-0.1,0.2-0.2,0.3-0.4c-2.8-3.7-5.6-7.5-8.5-11.2c-0.2-0.3-0.9-0.3-1.3-0.3c-2.1,0.2-4.2,0.7-6.2,0.7c-2.7,0-5.5-0.1-7.5-2.2
		c-2.6-2.7-4.9-5.7-6-9.3c-1-3.2-1-6.3,1.2-9.1C368.3,61.8,370.4,61.1,372.4,60.3z M429,170.3c0.1-0.1,0.2-0.2,0.3-0.3
		c-1.8-4-3.5-7.9-5.4-11.9c-0.1-0.3-0.9-0.5-1.2-0.4c-9.4,2.6-18.8,5.1-28.2,7.8c-22.3,6.3-44.5,12.7-66.8,19
		c-3.9,1.1-7.7,2.5-11.1,4.9c-7.6,5.6-15.3,11-22.9,16.6c-7.4,5.5-14.8,11.3-22.1,16.9c-2.5,1.9-2.6,4.7-0.3,7
		c0.8,0.8,0.9,1.6,0.7,2.6c-1.1,4.8-2.2,9.6-3.3,14.4c-0.7,3.1-1.4,6.3-2.2,9.6c-2-0.7-3.9-1.2-5.7-1.9c-3.4-1.3-6.7-2.8-10-4.1
		c-0.3-0.1-0.7-0.1-0.9,0c-2.3,1.3-4.5,2.6-7,4c1.1,2,2.2,3.7,3.2,5.5c2,3.3,4.1,6.5,6,9.9c1.1,1.9,0.7,3.8-0.4,5.6
		c-0.4,0.7-0.8,1.4-1.4,2.3c0.9-0.1,1.6,0,2.3-0.2c2.1-0.5,4.2-0.2,6.1,0.8c1.8,0.9,3.7,1.8,5.6,2.7c0.8,0.4,1.7,0.7,2.7,1.1
		c0-0.9-0.1-1.5,0-2.1c0.3-1.2-0.2-1.6-1.2-2c-2.4-1-4.8-2.3-7.2-3.2c-2.1-0.8-3.2-2.3-4.1-4.2c-1.2-2.5-2.6-4.9-3.9-7.3
		c-0.9-1.7-1.9-3.3-2.8-5c-0.2-0.3-0.1-0.9,0.1-1.2c0.9-1.1,2-2.2,3.1-3.5c6.1,3.2,12.2,6.5,18.5,9.8c0.4-1.9,0.7-3.4,1-4.9
		c2.2-10.2,4.3-20.4,6.5-30.6c0.3-1.2,1.1-2.5,2-3.3c1.1-1.1,2.6-1.9,4-2.8c11.1-8.1,22.3-16.2,33.4-24.3c3.1-2.3,6.1-4.7,10-5.8
		c7.5-2.1,14.9-4.4,22.3-6.5c21.8-6.2,43.7-12.2,65.5-18.4c2.3-0.7,4.4-0.6,6.7,0.3C423.6,168.3,426.3,169.3,429,170.3z
		 M445.7,205.8c-0.7,1.4-1.3,2.4-1.8,3.4c-3.4,6.5-6.6,13-8.3,20.2c-1.5,6.3-1.8,12.7,0.5,18.9c0.2,0.5,0.6,1,1,1.2
		c2.4,1.1,4.8,2.2,7.2,3.2c0.3,0.1,0.7,0.2,1.1,0.4c0-0.1,0.1-0.2,0.1-0.2c-0.9-1-1.8-2-3.1-3.4c0.6-0.5,1.2-0.9,1.8-1.3
		c4.4-3.5,8.7-7.1,13.2-10.6c1.1-0.8,1.3-1.5,0.8-2.7c-3.1-7.3-6.1-14.5-9.2-21.8C447.9,210.8,446.8,208.4,445.7,205.8z
		 M142.5,247.4c-0.5,0-0.6-0.1-0.7,0c-9.1,2.8-17.1,7.2-23.7,14.3c-9.5,10.2-13.8,22.2-12.9,36.1c0.2,2.5,1.3,3.3,3.5,2.2
		c1.7-0.8,3-2.3,4.5-3.5c0.8-0.7,1.3-1.5,1-2.7c-0.2-0.8,0-1.7,0.1-2.6c0.4-2.8,0.8-5.6,1.2-8.4c0.7-5,3.7-8.7,7.5-11.7
		c0.4-0.3,0.8-0.8,0.8-1.1c-0.1-1.5,0.7-2.3,1.7-3.1c4.5-3.7,9.9-5.1,15.4-6.3c0.5-0.1,1.1,0,1.7,0.1c1.6,0.1,3.2,0.2,4.8,0.3
		c0.1-0.2,0.1-0.3,0.2-0.5C145.3,256.2,140.7,253,142.5,247.4z M115.1,302.3c-2.2,2.5-4.3,5-6.5,7.3c-1.2,1.3-1.3,2.5-0.7,4
		c2.2,5.8,5.5,10.9,10,15.2c5.2,5.1,11.4,8.6,18.4,10.8c1,0.3,2,0.4,2.6-0.5c0.4-0.7,0.7-1.7,0.4-2.5c-1.1-3.6-2.2-7.2-3.6-10.7
		c-0.6-1.6-1.7-3.2-3-4.3c-1.6-1.4-3.7-2.3-5.5-3.5c-0.9-0.6-1.7-1.5-2.5-2.4c-1-1.2-1.8-2.7-3-3.8c-2.2-2-4.1-4.3-5.3-7
		C116,304.1,115.6,303.3,115.1,302.3z M407.9,251c0.1,0,0.2-0.1,0.3-0.1c-1.5-2.9-2.9-5.8-4.4-8.6c-1.1-2.1-1.8-4.3-1.4-6.7
		c1.5-11.2,2.7-22.4,4.3-33.5c0.7-5-0.6-9.3-3.6-13.2c-1.6-2.2-2.9-2.6-5.5-1.6c-2.5,1-5,2-7.5,3c-13.7,5.4-27.5,10.9-41.3,16.2
		c-17.7,6.8-35.4,13.4-53.1,20.2c-3.1,1.2-6,2.6-9,3.9c1.5-0.1,2.9-0.5,4.3-1c18.2-6.2,36.3-12.3,54.5-18.5c1-0.3,2.3-0.5,3.4-0.3
		c12.9,2.1,25.8,4.3,38.8,6.5c3,0.5,6,0.9,9,1.4c0-0.2,0.1-0.3,0.1-0.5c-14.2-3.3-28.5-6.6-42.7-10c0-0.1,0-0.3,0-0.4
		c0.6-0.3,1.3-0.6,1.9-0.9c10.8-4.6,21.6-9.2,32.3-13.8c3.1-1.3,6.2-2.7,9.4-3.9c0.9-0.3,2.4-0.4,2.9,0.1c2.8,2.9,4.6,6.2,4.1,10.4
		c-0.5,4.4-1.1,8.7-1.6,13.1c-1,7.3-1.9,14.7-3,22c-0.3,2.3-0.1,4.4,1.1,6.3C403.4,244.6,405.7,247.8,407.9,251z M320.8,175.6
		c-13.3,7.6-25.4,16.7-37.7,25.4c1.7,0.4,3.2,0.5,4.8,0.8c2.1,0.3,3.8-0.1,5.5-1.3c5.6-4,11.3-7.7,16.8-11.8
		c6.3-4.7,13-8.2,20.7-9.8c1.8-0.4,3.6-1,5.7-1.6c-0.7-0.6-1.1-0.9-1.6-1.3c-4.8-3.7-9.7-7.5-14.6-11.2c-2.4-1.8-5-3.3-8.1-3.3
		c-1.8,0-3.5,0-5.3,0.1c-7.7,0.7-15.3,1.5-22.9,2.4c-1,0.1-1.9,0.5-2.8,0.8c1.4,0.4,2.7,0.5,4,0.5c7.7,0,15.5-0.1,23.2-0.2
		c2.5,0,4.8,0.7,6.8,2.4C317.7,169.8,319.3,172.7,320.8,175.6z M511.3,345.7c-0.1,0.2-0.2,0.4-0.3,0.6c1.8,2.6,3.4,5.4,5.4,7.9
		c2.3,2.9,3.4,3,6.8,1.3c6.3-3.2,11.7-7.3,16.3-12.7c3.2-3.7,5.9-7.8,8-12.2c1.1-2.4,0.4-3.5-2.3-3.2c-2,0.2-4,0.6-6,0.8
		c-2.8,0.4-5.2,1.7-6.7,4c-2.3,3.5-5.1,6.3-8.6,8.4c-0.6,0.4-1.1,0.9-1.6,1.4c-2,2-4.3,3.2-7.3,3
		C513.8,344.9,512.5,345.4,511.3,345.7z M538.6,321.9c3.7-0.3,7.4-0.7,11.1-1.1c0.3,0,0.8-0.7,0.9-1.1c0.5-3.3,1.2-6.7,1.2-10
		c0.1-6-0.9-12-2.9-17.7c-1.3-3.8-3-7.4-5.5-11c-1.9,2.4-3.7,4.7-5.5,7c-1.1,1.4-1.1,2.8-0.1,4.3c1.1,1.7,1.6,3.5,1.6,5.6
		c0,2.1,0.3,4.2,0.7,6.3c1,6,1.5,11.8-1.6,17.4C538.5,321.5,538.5,321.5,538.6,321.9z M181.4,327.6c-1.9-0.5-2.9-0.4-4.3,0.4
		c-2.6,1.4-5.1,1.6-7.7-0.2c-0.3-0.2-0.8-0.3-1.2-0.4c-5.6-1-11.2-1.9-16.8-2.9c-2.4-0.4-4.8-0.9-7.2-1.2c-1.6-0.2-2.1,0.3-2,1.9
		c0,0.4,0.1,0.9,0.2,1.3c1.7,3.8,3.3,7.6,5.1,11.3c1.4,2.7,3.8,3.5,6.8,3c6-1,11.8-2.7,17.2-5.7
		C175.1,333.3,178.4,330.9,181.4,327.6z M136.6,240.3c-22.1,2.6-46,25.6-43.5,57.7c2.3,30.2,29.5,53,60.4,49.2
		c16.1-2,28.7-10,38.1-23c5.1-7.1,8.5-14.9,9.5-23.6c-0.7,0.4-1.3,1-1.5,1.6c-1.5,7.1-4.3,13.7-8.4,19.7
		c-11.4,16.4-27.1,24.6-47,23.9c-14.3-0.5-26.4-6.5-36-17.1C98.1,317.4,93.6,304,94.9,289c1.6-18.7,11.1-32.6,26.8-42.5
		C126.4,243.6,131.4,241.6,136.6,240.3z M501.3,360.2c2.1-0.2,4.3-0.3,6.4-0.5c2.3-0.2,3.1-1.7,1.7-3.6c-1.6-2.2-3.3-4.4-4.8-6.6
		c-0.9-1.3-1.8-1.6-3.3-1.2c-2,0.6-4.1,1.3-6.2,0.5c-2.9-1.1-5.7-2.4-8.5-3.7c-0.3-0.1-0.6-0.2-0.9-0.3c-2.1-0.6-4.2-1-6.3-1.7
		c-0.9-0.3-1.4-0.2-1.9,0.5c-1.2,1.8-2.6,3.6-3.7,5.5c-0.3,0.6-0.3,1.7,0,2.3c0.5,0.9,1.4,1.7,2.3,2.3
		C483.9,358.1,492.3,360.1,501.3,360.2z M504.6,267.3c0.4,0,0.7,0.1,0.9,0.1c4.9,0.1,9.3,1.3,13.1,4.7c0.9,0.8,2,1.6,3.2,1.9
		c4.4,1.1,7.3,4,9.7,7.6c0.7,1,1.2,1,1.9,0.2c1.7-1.8,3.4-3.7,5.2-5.5c1-1,0.8-1.8-0.1-2.7c-4.7-5.1-10.3-9-16.5-12
		c-4.9-2.3-10-3.7-15.4-4.1c-0.9-0.1-1.4,0.2-1.3,1.2c0,0.4,0,0.8-0.1,1.1C504.9,262.2,504.8,264.7,504.6,267.3z M181.4,272.3
		c16.6,11.2,33.3,21.9,50.4,32.2c0.6-1.2,1.1-2.2,1.7-3.3c-15.7-11.8-31.3-23.6-47.1-35.6C184.6,268,183.1,270,181.4,272.3z
		 M449.7,306.8c2.6,0.7,3.2-0.8,3.6-2.5c0.1-0.4,0.4-0.7,0.6-1.1c0.4-1,0.9-1.9,1.2-2.9c0.7-2.6,1.4-5.3,2-7.8
		c-0.9-0.4-2-0.9-2.7-1.2c0.3-1.3,0.7-2.2,0.8-3.1c0.2-2.1,1-3,3.1-3.5c-0.4-0.7-0.9-1.4-1.3-2.3c-0.3,0.4-0.5,0.6-0.6,0.8
		c-5.4,8.9-7.4,18.7-6.7,29c0.7,11.9,5.5,22.1,13.6,30.9c1,1.1,2.2,2,3.3,2.9c0.8,0.6,1.6,0.4,2.1-0.6c0.8-1.9,1.7-3.8,2.6-5.8
		c0.8-1.8,0.4-3.4-1.2-4.5c-4.6-3.5-7-8.2-8.2-13.7c-0.2-1-0.9-1.8-1.6-3.1c-0.8,1-1.3,1.6-1.8,2.1c-1.4,1.4-2.2,1.5-3.9,0.4
		c-2-1.3-3.4-3-3.8-5.3C450.1,312.6,450,309.8,449.7,306.8z M118.2,153.6c1,0.1,1.6,0.2,2.3,0.3c8.9,0.7,17.8,1.4,26.7,2.1
		c11.2,0.9,22.4,1.9,33.7,2.8c5.6,0.4,10.9,1.6,15.6,5.1c9.8,7.2,19.7,14.3,29.5,21.4c1.1,0.8,2.3,1.5,3.4,2.3
		c0.1-0.3,0-0.4-0.1-0.4c-10.8-8.7-21.6-17.4-32.4-26.1c-2.2-1.8-4.4-3.8-7.3-4.4c-3.3-0.7-6.6-1.2-9.9-1.5
		c-10-0.9-20.1-1.7-30.1-2.5c-5-0.4-10.1-0.8-15.1-1.1c-3.1-0.2-6.2-0.4-9.3-0.5C122.7,150.9,120.3,151.6,118.2,153.6z M306.5,239.5
		c-9.4-0.5-17.7,7.3-18,17c-0.3,8,5.8,17.6,17.2,17.8c9.8,0.1,17.2-7.7,17.8-16.6C324.1,248.4,317.4,239.6,306.5,239.5z
		 M176.9,269.7c1.4-3.3,2.8-6.4,4.2-9.6c0.3-0.7,0.1-1.1-0.5-1.5c-1.4-1-2.8-2.1-4.2-3.2c-3.6-2.7-7.2-5.5-10.8-8.3
		c-1-0.8-2-1.1-2.9,0.2c-1.5,2.1-3.1,4-4.5,6.1c-1.3,2-1.3,2.2,0.7,3.7C164.7,261.3,170.6,265.4,176.9,269.7z M446,187.5
		c7.8,18.5,15.6,36.8,23.4,55.3c1.4-0.5,2.6-1.1,4-1.6c-7.9-18.6-15.7-37-23.6-55.4C448.4,186.4,447.2,187,446,187.5z M421,129.9
		c7,16.3,13.9,32.6,20.9,49c1.5-0.5,2.9-1.1,4.3-1.6c-7-16.5-14-32.8-21-49.2C423.7,128.7,422.5,129.3,421,129.9z M244.6,235.4
		c0.5,0.9,0.8,1.5,1.2,2c0.4,0.7,0.8,1.4,0,2.1c-0.7,0.7-1.4,1-2.4,0.5c-0.9-0.4-1.8-0.8-2.9-1.3c0.6,1.5,2.4,2.5,1,4.1
		c-1.5,1.9-3,0.7-4.8-0.2c0.8,2,0.4,3.5-1.4,4.4c2,1.3,4,2.5,5.8,3.8c0.8,0.6,1.4,0.6,2.2,0.1c2.1-1.3,4.3-2.5,6.4-3.8
		c0.3-0.2,0.6-0.7,0.6-1.1c0-3,0.7-4.1,3.6-4.6c1.3-0.2,2.1-0.8,2.4-2c0.1-0.5,0.4-1.1,0.7-1.6c0.9-1.9,1.8-3.8,2.7-5.8
		c-2.1-0.9-4.1-1.7-6.2-2.6c0.1,0.7,0.1,1.1,0.2,1.6c0.1,2.3-1.1,3.1-3.1,2.1c-0.6-0.3-1.2-0.7-1.8-1c0.2,0.7,0.5,1.2,0.9,1.7
		c0.3,0.5,0.7,1,1,1.5C248.1,237.1,248.1,237.1,244.6,235.4z M203,265.5c0.1-0.1,0.2-0.2,0.3-0.4c-9.1-16.6-22.6-27.7-41-32.5
		c-14.3-3.7-38-0.4-44.7,6.1c0.3-0.1,0.5-0.1,0.6-0.2c9.3-4.2,19-6.3,29.2-6c8.3,0.2,16.1,2,23.5,5.6c10.6,5.2,19.2,13,27,21.7
		C199.7,261.8,201.4,263.7,203,265.5z M243.4,275.5c-1.9-3.6-3.6-7-5.4-10.4c-1.7,0.6-3.2,1.1-5,1.7c0.2-1.2,0.4-1.9,0.6-2.7
		c0.2-0.8,0.3-1.7,0.5-3c-9.2,1.2-18,3.1-26.9,4.5c2.7,1.1,5.3,1.9,8.2,1.4c4.3-0.8,8.7-1.2,13-1.9c1.4-0.2,2.1,0.1,2.6,1.5
		c0.7,2.5,1.6,5,2.4,7.5c0.7,2.1,1.4,4.2,2.1,6.5C238.2,278.9,240.7,277.2,243.4,275.5z M264.1,226.3c1.1-1.7,2-3.3,3.1-4.6
		c1.3-1.5,2.9-2.7,4.3-4c1.8-1.7,3.6-3.3,5.6-5.1c-0.9-0.4-1.5-0.7-2.2-0.9c-9.9-3.4-19.8-7-29.8-10.2c-2.7-0.9-5.7-1.5-8.6-1.5
		c-5,0.1-10.1,0.7-15.1,1.1c-1.9,0.2-3.9,0.5-5.8,0.7c0.5,0.3,0.9,0.3,1.3,0.3c6.6,0,13.3-0.2,19.9-0.1c2.3,0,4.7,0.3,6.9,1
		c6.7,2.3,13.4,4.8,20.1,7.3c2.3,0.9,4.7,1.7,6.9,2.5c-3.3,3.9-6.5,7.7-9.9,11.7C262.2,225.3,263.2,225.8,264.1,226.3z M358,161.2
		c0.1,0,0.2-0.1,0.3-0.1c-0.7-1.7-1.3-3.3-2.1-5c-2.7-6.1-6.1-11.8-11.5-16.1c-4.4-3.5-9.4-5.3-15-5.2c-5.6,0-10.8,1.9-15.4,4.9
		c-7,4.4-13.8,9.1-20.7,13.7c-2,1.3-3.8,2.9-5.7,4.4c0.5,0,0.9-0.1,1.2-0.4c3.1-2,6.3-4.1,9.4-6c7.2-4.5,14.4-9.1,22.5-12
		c8.2-2.8,15.8-2,22.9,3c4.1,2.9,7,6.7,9.5,10.9C355.1,156,356.5,158.6,358,161.2z M283.2,206.8c-0.4-0.1-0.5-0.2-0.6-0.3
		c-12.2-3.6-24.5-7.2-36.7-10.9c-2.9-0.9-5.9-1.2-8.9-0.8c-1.5,0.2-3,0.2-4.6,0.3c-3.2,0.2-6.4,0.3-9.6,0.5c2,0.4,4,0.6,6.1,0.7
		c3.7,0.2,7.5,0,11.1,0.6c4.6,0.8,9.1,2.3,13.5,3.6c8.6,2.6,17.2,5.4,25.8,8.1c0.9,0.3,1.5,0.2,2.2-0.5
		C282,207.8,282.5,207.4,283.2,206.8z M179,302.4c0.2,3,0.3,5.7,0.5,8.4c0,0.3,0.6,0.9,0.9,0.9c3.2,0.3,6.3,0.1,9.2-1.2
		c2.8-1.3,5.4-5.8,4.9-8.6C189.6,302,184.4,302.2,179,302.4z M473.8,252.1c3.9,8.9,7.7,17.6,11.5,26.4c1.2-0.5,2.3-0.9,3.5-1.4
		c-3.8-8.9-7.6-17.7-11.5-26.5C476.1,251.2,475,251.6,473.8,252.1z M161.4,242.1c-1.4-0.7-2.6-1.4-3.9-1.9c-0.9-0.3-2-0.5-2.8-0.3
		c-5.8,1.8-7.6,5.7-5.3,11.6c0.9,2.3,2.1,2.5,3.8,0.7C156,249,158.6,245.6,161.4,242.1z M500.6,299.7c-3.9,0-7.2,3.1-7.2,6.8
		c0,3.9,3.4,7.5,7.2,7.5c3.8,0.1,7-3.3,7-7.4C507.6,302.9,504.4,299.7,500.6,299.7z M358.7,296.8c-0.1,0.1-0.3,0.2-0.4,0.4
		c0.1,0.2,0.2,0.4,0.3,0.6c3,4.4,6,8.9,9.1,13.2c1.1,1.5,1.5,3.1,1.1,4.9c-0.1,0.7-0.3,1.4-0.6,2.1c-0.4,1.1-0.4,1.7,0.9,2.2
		c3.1,1.2,6.1,2.5,9.1,3.8c0.9,0.4,1.9,0.7,2.8,1.1c0.1-0.1,0.2-0.2,0.3-0.4C373.9,315.3,366.3,306.1,358.7,296.8z M522.6,299.8
		c-1.8,0.8-3.5,1.5-5.2,2.3c-0.4,0.2-1,0.7-1,1.1c-0.2,2.3-0.3,4.6-0.4,6.9c0,0.3,0.3,0.8,0.5,0.9c2.5,1,5.1,2,7.7,3
		C525.8,309.1,525.2,304,522.6,299.8z M141.3,297.7c3.8,0,7-3.2,7-6.9c0-3.9-3.3-7.2-7.1-7.1c-3.6,0-6.9,3.3-6.9,6.9
		C134.3,294.3,137.6,297.7,141.3,297.7z M472.6,265.5c-3,2.2-5.8,4.3-7.9,7.1c-0.2,0.3-0.5,0.8-0.4,1.1c0.6,1.5,1.2,3,2,4.4
		c0.6,1,1.4,1.2,2.5,0.4c2.2-1.8,4.6-3.5,7.1-5.4C474.9,270.8,473.8,268.3,472.6,265.5z M486.6,330.4c-0.1,0.3-0.4,1-0.7,1.6
		c-1,2.2-0.9,2.8,1.4,3.8c2.2,1,4.6,1.7,6.9,2.3c2.1,0.5,4.2,0.6,6.2,0.9c0-2.1,0-3.9,0-5.3C495.7,332.6,491.3,331.5,486.6,330.4z
		 M500.4,323.1c-2.1-0.6-4.2-1.1-6.2-1.8c-0.9-0.3-1.3-0.1-1.8,0.6c-1,1.6-2.1,3.1-3.1,4.6c-0.6,0.9-0.5,1.5,0.5,1.8
		c2.6,0.7,5.2,1.4,7.9,2.1c0.8,0.2,1.7,0.1,2.7,0.2C500.4,327.9,500.4,325.6,500.4,323.1z M521.5,324.7c-3.8,2.3-7.5,4.6-11.5,7
		c0.6,1.3,1.3,3.1,2.1,4.9c4.8-2.9,9.7-5,13.2-9.2C523.9,326.4,522.6,325.5,521.5,324.7z M512.4,317.3c-1.3,1-2.6,1.8-3.8,2.8
		c-0.3,0.2-0.5,0.7-0.4,1c0.4,2.3,1,4.6,1.4,6.9c2.9-0.5,7.7-3.5,9.2-5.7C516.7,320.7,514.6,319,512.4,317.3z M477.8,329
		c1.3-1.4,2.5-2.7,3.7-4c-1.5-2.3-3-4.8-4.6-7.3c-0.2-0.4-0.8-0.7-1.2-0.7c-1.5,0.2-3,0.6-4.6,1C472.4,322.4,474.8,325.8,477.8,329z
		 M511.9,284.7c0.1-0.7,0.2-1.2,0.3-1.8c0.5-2.9,0.5-2.9-2.3-3.9c-2-0.7-4-1.3-6.4-2.1c0,1.7,0,3.2,0,4.6c0,0.8,0.5,1.3,1.3,1.4
		C507.1,283.5,509.4,284.1,511.9,284.7z M314.8,238c-6.8-4.9-18.4-3.4-25.1,3c-6.8,6.5-8,17-5.2,22.3c-2-8.7-0.1-16.4,6.9-22.1
		C298.2,235.6,306.1,234.5,314.8,238z M483.6,322.9c1.8-1.6,3.2-2.9,4.6-4.2c1.8-1.6,1.9-1.8,0.6-3.8c-3.1,0.6-6.3,1.2-9.7,1.9
		C480.6,318.9,482.1,320.9,483.6,322.9z M531.2,315.3c0-3.9,0-7.6,0-11.4c-0.7,0.1-1.2,0.1-1.7,0.1c-1.3,0-1.8,0.7-1.8,1.9
		c0,2.9,0,5.7,0,8.8C528.5,314.9,529.8,315.1,531.2,315.3z M516.7,287.8c1.9,2.1,3.7,4,5.7,6.1c0.9-1.1,1.8-2,2.5-3
		c0.2-0.3,0.2-1,0-1.2c-1.4-1.8-3-3.6-4.6-5.6C519.1,285.4,518,286.6,516.7,287.8z M475.5,305.4c0.6,1.5,1,2.5,1.4,3.5
		c0.1,0.3,0.6,0.5,0.9,0.5c2.9-0.3,5.6-1.2,8-2.9c0.3-0.2,0.6-0.9,0.5-1.2c-0.1-0.3-0.7-0.8-1-0.8
		C482.1,304.8,479,305.1,475.5,305.4z M503.5,285.3c0.1,1.4,0.1,2.4,0.3,3.4c0.3,1.2,0.7,2.5,1.3,3.6c0.5,0.9,1.4,1.1,2.1,0.2
		c1.3-1.6,2.5-3.3,3.9-5.3C508.3,286.4,506,285.9,503.5,285.3z M515.4,290.7c-1.5,2.5-2.5,4.9-2.2,7.8c2.7,0,4.8-1.1,6.9-2.8
		C518.5,294,517,292.5,515.4,290.7z M184.1,317.7c-3,0.1-6-0.6-8.6,1.2c0,0.2-0.1,0.4-0.1,0.5c2.9,0.8,5.9,1.6,9,2.5
		C184.3,320.3,184.2,319.1,184.1,317.7z M139.8,271.7c-0.1-0.1-0.1-0.3-0.2-0.4c-0.8,0.2-1.7,0.1-2.3,0.5c-2.6,1.6-5.2,3.2-7.7,4.9
		c-0.9,0.6-0.7,1.8,0.2,2.5C133.3,276.8,136.5,274.3,139.8,271.7z M155.7,252c0.1,0.2,0.2,0.3,0.3,0.5c0.7-0.3,1.6-0.4,2-0.9
		c1.9-2.2,3.6-4.5,5.4-6.7c0.6-0.7,0.4-1.1-0.5-1.6C159.9,245.7,157.7,248.8,155.7,252z M124.1,291.1c0.3,0.1,0.5,0.2,0.8,0.2
		c0.5-0.9,1.1-1.8,1.6-2.8c0.6-1.3,0.9-2.7,1.5-4c0.9-2.2,0.7-2.5-1.6-2.7c-0.5,1.6-1,3.1-1.4,4.7
		C124.6,288,124.4,289.6,124.1,291.1z M230.7,243.5c-2.3-3.4-4.6-6.9-6.9-10.3C223.8,237.8,227.1,242.6,230.7,243.5z M246.9,298.3
		c0-1.1-1.2-2.4-2.3-2.4c-1,0-2,0.9-2,1.9c0,1.2,1.2,2.6,2.3,2.6C245.8,300.3,246.9,299.2,246.9,298.3z M424.2,110.2
		c3.3-4.4,6.7-8.8,10.2-13.5C432.3,97.4,424.9,107.1,424.2,110.2z M271.3,297.7c0-1.6-0.9-2.7-1.9-2.7c-1,0-1.9,0.9-2,2
		c0,1.3,0.8,2.1,2,2.1C270.7,299.1,271.3,298.5,271.3,297.7z M235.7,224.3c-0.3,3.1,1.5,6.1,3.7,6.9c0.2,0.1,0.5,0,0.8,0
		c0-0.3,0.1-0.6,0-0.7C238.8,228.5,237.3,226.5,235.7,224.3z M514.3,314.7c-0.1,0.2-0.2,0.3-0.3,0.5c2.2,1.6,4.4,3.2,6.7,4.9
		c0.4-0.8,0.7-1.3,1.1-2C519.2,316.9,516.7,315.8,514.3,314.7z M239.2,221.5c0.5,3.6,3,6.3,5.5,6C243.3,225,240.9,223.6,239.2,221.5
		z M128.1,303.9c1.4-1.8,1.6-3,0.7-4.2c-0.6-0.9-1.4-0.8-2.1-0.3c-0.7,0.4-1.3,0.9-0.6,1.8C126.7,302,127.3,302.9,128.1,303.9z
		 M471.6,294.2c2,0.2,3.3-0.5,4.2-1.9c0.2-0.4-0.1-1-0.1-1.5c-0.4,0.1-1,0-1.2,0.2C473.5,292,472.6,293.1,471.6,294.2z M523.8,324.1
		c1.3,0.2,2.4-0.1,3.2-1c0.2-0.2,0.2-1,0.1-1c-0.6-0.3-1.3-0.6-2-0.6c-0.3,0-0.7,0.6-0.9,1C524,323,523.9,323.6,523.8,324.1z
		 M163.6,320.1c0,0.2,0.1,0.4,0.1,0.6c2-0.2,3.9-0.3,5.9-0.5c0-0.2,0.1-0.3,0.1-0.5c-0.3-0.2-0.6-0.7-0.9-0.6
		C167.1,319.3,165.3,319.7,163.6,320.1z M481.4,297.5c-1.2-0.9-2.3-1.7-3.5-2.7C477.7,297.8,478.7,298.5,481.4,297.5z M494.4,346.6
		c0.1,0.2,0.1,0.4,0.2,0.6c1.1,0.1,2.2,0.2,3.2,0.2c0.1-0.2,0.2-0.3,0.3-0.5c-0.6-0.6-1.1-1.6-1.7-1.7
		C495.8,345.2,495.1,346.1,494.4,346.6z M474.9,280.7c0.6,1,1,1.7,1.7,2.8c0.8-1.2,1.3-2,1.8-2.8c-0.1-0.1-0.2-0.2-0.3-0.4
		C477.1,280.5,476.2,280.5,474.9,280.7z M526,285.6c0.3-1.7-0.5-2.7-2.3-2.9C523.3,284.5,524.1,285.5,526,285.6z M494,343.4
		c-0.1-0.2-0.2-0.3-0.2-0.5c-0.8,0.1-2.1,0-2.4,0.4c-0.6,0.9,0.1,1.7,1.3,2.2C493.1,344.8,493.5,344.1,494,343.4z M519.4,340
		c-1,0.6-1.8,1-2.5,1.4c-0.2,0.1-0.2,0.6-0.1,0.8c0.1,0.2,0.4,0.4,0.6,0.4C518.5,342.8,519.5,341.6,519.4,340z M231,229.1
		c0.4,2.5,1.1,4.4,3.5,5.6C233.3,232.8,232.2,231,231,229.1z M468.8,326.8c1-0.6,1.4-1.3,0.8-2.2c-0.2-0.3-1.2-0.5-1.4-0.3
		C467.2,325.3,468.3,325.9,468.8,326.8z M510.8,270c-0.1,0.1-0.2,0.3-0.2,0.4c0.4,0.5,0.7,1.1,1.2,1.5c0.3,0.2,0.9,0,1.4-0.1
		c-0.2-0.5-0.2-1.2-0.5-1.4C512.1,270.2,511.4,270.2,510.8,270z M127.6,275.7c0.1-0.2,0.1-0.4,0.2-0.6c-0.7-0.3-1.5-0.5-2.5-0.9
		c0.1,1,0.2,1.7,0.3,2.7C126.4,276.4,127,276,127.6,275.7z M483.6,328.3c-0.5,1.1-0.9,2.2-1.4,3.3
		C484.2,331,484.6,329.9,483.6,328.3z M472.6,281.2c-0.2,1.2-0.3,2.1-0.4,3c0.4-0.1,0.9,0,1.1-0.2
		C473.9,283.1,473.9,282.3,472.6,281.2z M509.8,276.7c0.1-0.1,0.3-0.2,0.4-0.2c-0.2-0.8-0.3-1.6-0.6-2.7c-0.8,0.6-1.3,1-2,1.5
		C508.5,275.9,509.1,276.3,509.8,276.7z M467.9,329.6c0.7,0.8,1.3,1.6,2.2,2.7C470.4,330.1,469.8,329.4,467.9,329.6z M483,341.4
		c0.8-0.8,0.8-1.6,0.1-2.1c-1-0.7-1.3,0.3-1.9,0.9C481.9,340.6,482.4,341,483,341.4z M509.5,271c-0.6-0.5-0.9-0.8-1.3-1.1
		c-0.3,0.4-0.9,0.8-0.9,1.3c0,0.4,0.5,0.8,0.8,1.2C508.5,272,508.9,271.6,509.5,271z M140.5,267.9c0.2-0.1,0.4-0.3,0.6-0.4
		c-0.3-0.8-0.6-1.6-0.8-2.4c-0.2,0-0.3,0-0.5,0c-0.3,0.5-0.8,1.1-0.7,1.5C139.3,267.1,140,267.5,140.5,267.9z M536.8,309.7
		c-0.1-0.1-0.3-0.3-0.4-0.4c-0.6,0.5-1.3,1-1.9,1.5c0.7,0.2,1.4,0.5,2.3,0.8C536.8,310.7,536.8,310.2,536.8,309.7z M533.8,300.5
		c0.1,0.1,0.3,0.3,0.4,0.4c0.7-0.3,1.4-0.5,2.3-0.9c-0.7-0.7-1.1-1.1-1.8-1.7C534.3,299.2,534,299.9,533.8,300.5z M121.6,283
		c-0.8-0.4-1.3-0.8-1.9-0.9c-0.2,0-0.5,0.5-0.8,0.7c0.5,0.4,1,0.9,1.5,1.3C120.6,284.2,121.1,283.6,121.6,283z M117.2,288.3
		c-0.2,0-0.3,0-0.5-0.1c-0.2,0.7-0.4,1.5-0.6,2.2c0.5,0.1,1,0.2,1.8,0.4C117.6,289.7,117.4,289,117.2,288.3z M509.1,342.1
		c0.3,0,0.6,0.1,0.9,0.1c0.1-0.7,0.2-1.4,0.3-2c0,0-0.7-0.1-1.1-0.2C509.2,340.7,509.2,341.4,509.1,342.1z M537.4,313.7
		c-0.2-0.1-0.4-0.1-0.6-0.2c-0.2,0.5-0.7,1.1-0.6,1.6c0.1,0.5,0.7,0.9,1,1.4c0.1-0.1,0.3-0.1,0.4-0.2
		C537.6,315.4,537.5,314.5,537.4,313.7z M474.4,277.7c1.2,0,2.1,0,3.1,0c-0.3-0.7-0.5-1.2-0.7-1.9
		C476,276.4,475.4,276.9,474.4,277.7z M466,322.7c0.2,0,0.4,0.1,0.6,0.1c0.2-0.5,0.3-1.1,0.5-1.6c-0.7-0.1-1.4-0.2-2-0.4
		c-0.1,0.2-0.1,0.3-0.2,0.5C465.2,321.8,465.6,322.2,466,322.7z M124.2,309.4c0.4-0.9,0.7-1.4,0.8-1.9c0-0.1-0.5-0.6-0.7-0.6
		c-0.5,0.2-0.9,0.6-1.4,0.9C123.4,308.4,123.6,308.7,124.2,309.4z M536.2,293.5c-1.5,1.1-1.3,2,0.6,3
		C536.7,295.4,536.5,294.6,536.2,293.5z M516.7,276.6c0.2,0,0.3,0.1,0.5,0.1c0.1-0.5,0.3-1,0.3-1.6c0-0.2-0.4-0.7-0.5-0.7
		c-0.4,0.2-0.8,0.5-1.3,0.7C516.1,275.7,516.4,276.1,516.7,276.6z M128.9,272.1c0.2-0.2,0.5-0.3,0.7-0.5c-0.4-0.6-0.8-1.2-1.2-1.9
		c-0.3,0.2-0.6,0.5-0.9,0.7C127.9,271,128.4,271.6,128.9,272.1z M525.1,281.8c1-0.3,2-0.2,2.2-0.6c0.4-0.7,0.1-1.6-1.1-1.7
		C525.9,280.1,525.6,280.7,525.1,281.8z M474.5,297.5c0.7-0.3,1.3-0.7,2-1c-0.2-0.2-0.3-0.6-0.5-0.7
		C474.9,295.5,474.4,296.1,474.5,297.5z M480.7,335.1c-0.2,0-0.4-0.1-0.6-0.1c-0.5,0.6-0.9,1.2-1.4,1.8c0.1,0.1,0.1,0.3,0.2,0.4
		c0.5-0.2,1.3-0.1,1.6-0.5C480.8,336.4,480.6,335.7,480.7,335.1z M130.9,267.1c1,0.3,1.6,0.5,2.3,0.7c0-0.8,0-1.4,0-2.3
		C132.5,266.1,131.9,266.5,130.9,267.1z M514,308.3c0.2,0,0.3,0,0.5,0c0.1-1.4,0.3-2.9,0.4-4.3c-0.2,0-0.4,0-0.6-0.1
		C514.2,305.5,514.1,306.9,514,308.3z M525.7,337.3c0.8-0.8,1.3-1.5,2.1-2.3C525.6,335.3,525.2,335.6,525.7,337.3z M518.4,336.8
		c0.7,0.2,1.1,0.4,1.6,0.6c0.2-0.7,0.4-1.3,0.5-2c-0.1,0-0.2,0-0.4-0.1C519.6,335.8,519.1,336.2,518.4,336.8z M229.9,235.1
		c-0.8-1.3-1.6-2.6-2.4-3.9C227.7,232.8,228.3,234.3,229.9,235.1z M531.2,288.4c-0.1-0.1-0.2-0.3-0.2-0.4c-0.5,0.2-1.1,0.2-1.4,0.5
		c-0.2,0.2,0.1,0.9,0.1,1.3c0.1,0,0.3,0,0.4,0C530.4,289.3,530.8,288.9,531.2,288.4z M525.5,278.4c-0.9-0.7-1.5-1.2-2-1.7
		c-0.1,0.1-0.2,0.2-0.4,0.3c0.3,0.5,0.6,1.2,1,1.6C524.3,278.8,524.8,278.5,525.5,278.4z M505.7,334.2c0.2,0,0.3,0,0.5-0.1
		c0.6-1.3,0.6-1.5-0.9-2.5C505.5,332.7,505.6,333.4,505.7,334.2z M473.4,335.5c0.3-0.1,0.6-0.1,0.9-0.2c-0.1-0.6-0.2-1.2-0.3-1.8
		c-0.3,0.1-0.6,0.1-0.9,0.2C473.2,334.3,473.3,334.9,473.4,335.5z M148.8,265.4c-0.6-0.3-1-0.5-1.5-0.6c-0.1,0-0.5,0.3-0.5,0.4
		c0.1,0.4,0.3,0.9,0.6,1.5C148,266.2,148.3,265.9,148.8,265.4z M118.6,297.2c0.2,0,0.3-0.1,0.5-0.1c-0.2-0.7-0.4-1.5-0.7-2.5
		C117.6,295.9,117.5,296.6,118.6,297.2z M120.9,277.2c-0.4,1-0.8,1.7-1.2,2.5C121.6,279.4,121.8,278.9,120.9,277.2z M498.9,342.8
		c0,0.2-0.1,0.3-0.1,0.5c0.3,0.4,0.7,0.8,1.1,1.2c0.4-0.4,0.7-0.8,1.3-1.6C500.2,342.9,499.5,342.9,498.9,342.8z M473.3,307.6
		c-0.3,0.5-0.7,1-0.6,1.1c0.2,0.4,0.7,0.7,1,1c0.2-0.3,0.7-0.6,0.6-0.7C474.2,308.6,473.8,308.3,473.3,307.6z M529.5,296.1
		c0.1,0,0.3-0.1,0.4-0.1c0-0.6,0-1.2,0-2.1c-0.7,0.5-1.1,0.7-1.5,1C528.8,295.4,529.2,295.7,529.5,296.1z M486.5,325.8
		c0.2,0.1,0.4,0.2,0.7,0.4c0.4-0.8,0.8-1.6,1.2-2.4c-0.2-0.1-0.4-0.2-0.5-0.3C487.4,324.2,486.9,325,486.5,325.8z M531,325.6
		c-0.4,0.5-0.8,0.9-1.2,1.3c0.1,0.1,0.1,0.3,0.2,0.4c0.6-0.1,1.2-0.1,2-0.2C531.6,326.5,531.4,326.1,531,325.6z M464.3,317.3
		c0.4-0.4,0.9-0.7,0.9-1c0-0.3-0.5-0.7-0.8-0.8c-0.3,0-0.8,0.4-0.8,0.6C463.5,316.5,463.9,316.8,464.3,317.3z"/>
	<path class="st0" d="M142.5,247.4c-1.8,5.6,2.9,8.8,5,12.9c-0.1,0.2-0.1,0.3-0.2,0.5c-1.6-0.1-3.2-0.2-4.8-0.3
		c-0.6,0-1.2-0.2-1.7-0.1c-5.5,1.3-10.9,2.6-15.4,6.3c-1,0.8-1.8,1.7-1.7,3.1c0,0.4-0.4,0.8-0.8,1.1c-3.8,3.1-6.8,6.7-7.5,11.7
		c-0.4,2.8-0.8,5.6-1.2,8.4c-0.1,0.8-0.3,1.8-0.1,2.6c0.3,1.2-0.2,2.1-1,2.7c-1.4,1.2-2.8,2.7-4.5,3.5c-2.2,1.1-3.3,0.3-3.5-2.2
		c-0.9-13.9,3.5-25.9,12.9-36.1c6.5-7.1,14.6-11.5,23.7-14.3C141.9,247.3,142,247.4,142.5,247.4z"/>
	<path class="st0" d="M115.1,302.3c0.5,1,0.9,1.9,1.3,2.7c1.2,2.8,3.1,5,5.3,7c1.2,1.1,1.9,2.5,3,3.8c0.7,0.9,1.6,1.7,2.5,2.4
		c1.8,1.2,3.9,2.1,5.5,3.5c1.3,1.1,2.3,2.7,3,4.3c1.4,3.5,2.5,7.1,3.6,10.7c0.2,0.7,0,1.8-0.4,2.5c-0.6,0.9-1.5,0.8-2.6,0.5
		c-7-2.2-13.1-5.8-18.4-10.8c-4.4-4.3-7.8-9.4-10-15.2c-0.6-1.5-0.5-2.7,0.7-4C110.8,307.3,112.9,304.8,115.1,302.3z"/>
	<path class="st0" d="M407.9,251c-2.2-3.2-4.5-6.4-6.6-9.7c-1.3-1.9-1.5-4-1.1-6.3c1.1-7.3,2-14.7,3-22c0.6-4.4,1.1-8.7,1.6-13.1
		c0.5-4.2-1.3-7.6-4.1-10.4c-0.5-0.5-2-0.4-2.9-0.1c-3.2,1.2-6.3,2.6-9.4,3.9c-10.8,4.6-21.6,9.2-32.3,13.8
		c-0.6,0.3-1.3,0.6-1.9,0.9c0,0.1,0,0.3,0,0.4c14.2,3.3,28.5,6.6,42.7,10c0,0.2-0.1,0.3-0.1,0.5c-3-0.5-6-0.9-9-1.4
		c-12.9-2.2-25.8-4.4-38.8-6.5c-1.1-0.2-2.3-0.1-3.4,0.3c-18.2,6.1-36.3,12.3-54.5,18.5c-1.4,0.5-2.8,0.9-4.3,1c3-1.3,5.9-2.7,9-3.9
		c17.7-6.8,35.4-13.4,53.1-20.2c13.8-5.3,27.5-10.8,41.3-16.2c2.5-1,5-2,7.5-3c2.5-1,3.9-0.6,5.5,1.6c2.9,3.9,4.3,8.2,3.6,13.2
		c-1.5,11.2-2.8,22.4-4.3,33.5c-0.3,2.5,0.3,4.6,1.4,6.7c1.5,2.9,3,5.8,4.4,8.6C408.1,250.9,408,250.9,407.9,251z"/>
	<path class="st0" d="M320.8,175.6c-1.5-2.9-3-5.8-5.6-8c-2-1.6-4.2-2.4-6.8-2.4c-7.7,0-15.5,0.1-23.2,0.2c-1.3,0-2.6-0.1-4-0.5
		c0.9-0.3,1.9-0.7,2.8-0.8c7.6-0.8,15.3-1.6,22.9-2.4c1.8-0.2,3.5-0.1,5.3-0.1c3.1,0,5.7,1.5,8.1,3.3c4.9,3.7,9.7,7.5,14.6,11.2
		c0.4,0.3,0.9,0.7,1.6,1.3c-2,0.6-3.8,1.2-5.7,1.6c-7.7,1.5-14.4,5.1-20.7,9.8c-5.5,4.1-11.2,7.9-16.8,11.8
		c-1.7,1.2-3.5,1.6-5.5,1.3c-1.5-0.3-3.1-0.3-4.8-0.8C295.4,192.2,307.5,183.2,320.8,175.6z"/>
	<path class="st0" d="M511.3,345.7c1.2-0.2,2.5-0.8,3.7-0.7c3,0.2,5.3-0.9,7.3-3c0.5-0.5,1-1.1,1.6-1.4c3.5-2.2,6.3-5,8.6-8.4
		c1.5-2.3,3.9-3.6,6.7-4c2-0.3,4-0.6,6-0.8c2.6-0.3,3.4,0.8,2.3,3.2c-2.1,4.4-4.8,8.5-8,12.2c-4.6,5.3-10.1,9.5-16.3,12.7
		c-3.4,1.7-4.5,1.6-6.8-1.3c-2-2.5-3.6-5.2-5.4-7.9C511.1,346.1,511.2,345.9,511.3,345.7z"/>
	<path class="st0" d="M538.6,321.9c-0.1-0.3-0.1-0.4-0.1-0.4c3.2-5.6,2.7-11.4,1.6-17.4c-0.4-2.1-0.6-4.2-0.7-6.3
		c0-2-0.5-3.9-1.6-5.6c-1-1.5-1.1-2.9,0.1-4.3c1.8-2.3,3.6-4.6,5.5-7c2.5,3.5,4.2,7.1,5.5,11c2,5.7,3,11.7,2.9,17.7
		c0,3.4-0.7,6.7-1.2,10c-0.1,0.4-0.5,1-0.9,1.1C546,321.2,542.3,321.5,538.6,321.9z"/>
	<path class="st0" d="M181.4,327.6c-3,3.2-6.3,5.7-9.9,7.7c-5.4,3-11.2,4.7-17.2,5.7c-3,0.5-5.4-0.3-6.8-3
		c-1.8-3.7-3.4-7.5-5.1-11.3c-0.2-0.4-0.2-0.8-0.2-1.3c-0.1-1.6,0.4-2.2,2-1.9c2.4,0.3,4.8,0.8,7.2,1.2c5.6,1,11.2,1.9,16.8,2.9
		c0.4,0.1,0.9,0.1,1.2,0.4c2.5,1.8,5.1,1.6,7.7,0.2C178.5,327.3,179.5,327.1,181.4,327.6z"/>
	<path class="st0" d="M136.6,240.3c-5.3,1.3-10.3,3.3-14.9,6.2c-15.8,9.8-25.2,23.8-26.8,42.5c-1.3,15,3.2,28.4,13.4,39.6
		c9.6,10.5,21.7,16.6,36,17.1c20,0.7,35.7-7.5,47-23.9c4.1-6,6.9-12.5,8.4-19.7c0.1-0.6,0.8-1.2,1.5-1.6c-1.1,8.8-4.5,16.6-9.5,23.6
		c-9.4,13.1-22.1,21.1-38.1,23c-31,3.8-58.1-19-60.4-49.2C90.6,265.9,114.5,242.9,136.6,240.3z"/>
	<path class="st0" d="M501.3,360.2c-9-0.1-17.4-2-25.2-6.6c-0.9-0.5-1.7-1.4-2.3-2.3c-0.3-0.6-0.3-1.7,0-2.3
		c1.1-1.9,2.4-3.7,3.7-5.5c0.5-0.7,1-0.8,1.9-0.5c2,0.7,4.2,1.2,6.3,1.7c0.3,0.1,0.6,0.2,0.9,0.3c2.8,1.2,5.6,2.6,8.5,3.7
		c2.1,0.8,4.2,0.1,6.2-0.5c1.5-0.4,2.4-0.2,3.3,1.2c1.5,2.3,3.2,4.4,4.8,6.6c1.3,1.9,0.6,3.5-1.7,3.6
		C505.6,359.9,503.4,360,501.3,360.2z"/>
	<path class="st0" d="M504.6,267.3c0.2-2.6,0.3-5.1,0.5-7.6c0-0.4,0.1-0.8,0.1-1.1c-0.1-1,0.4-1.2,1.3-1.2
		c5.4,0.4,10.6,1.8,15.4,4.1c6.2,3,11.8,6.9,16.5,12c0.9,1,1.1,1.7,0.1,2.7c-1.8,1.8-3.4,3.7-5.2,5.5c-0.7,0.7-1.3,0.7-1.9-0.2
		c-2.4-3.6-5.3-6.4-9.7-7.6c-1.1-0.3-2.3-1.1-3.2-1.9c-3.7-3.3-8.2-4.6-13.1-4.7C505.2,267.4,505,267.3,504.6,267.3z"/>
	<path class="st0" d="M181.4,272.3c1.7-2.3,3.3-4.4,5-6.6c15.8,11.9,31.4,23.7,47.1,35.6c-0.6,1.1-1.1,2.1-1.7,3.3
		C214.7,294.2,197.9,283.6,181.4,272.3z"/>
	<path class="st0" d="M449.7,306.8c0.3,3.1,0.4,5.8,0.9,8.5c0.4,2.3,1.8,4.1,3.8,5.3c1.7,1.1,2.5,1,3.9-0.4c0.5-0.5,1-1.2,1.8-2.1
		c0.7,1.3,1.4,2.2,1.6,3.1c1.2,5.5,3.6,10.2,8.2,13.7c1.6,1.2,2,2.7,1.2,4.5c-0.8,1.9-1.7,3.8-2.6,5.8c-0.5,1-1.3,1.2-2.1,0.6
		c-1.2-0.9-2.3-1.8-3.3-2.9c-8-8.7-12.8-19-13.6-30.9c-0.6-10.3,1.4-20.1,6.7-29c0.1-0.2,0.3-0.4,0.6-0.8c0.5,0.8,0.9,1.5,1.3,2.3
		c-2.2,0.4-2.9,1.3-3.1,3.5c-0.1,0.9-0.4,1.8-0.8,3.1c0.7,0.3,1.8,0.8,2.7,1.2c-0.6,2.5-1.3,5.2-2,7.8c-0.3,1-0.8,1.9-1.2,2.9
		c-0.2,0.4-0.5,0.7-0.6,1.1C452.9,305.9,452.3,307.4,449.7,306.8z"/>
	<path class="st0" d="M118.2,153.6c2.1-2,4.5-2.7,7-2.7c3.1,0,6.2,0.3,9.3,0.5c5,0.4,10.1,0.7,15.1,1.1c10,0.8,20.1,1.6,30.1,2.5
		c3.3,0.3,6.6,0.8,9.9,1.5c2.9,0.6,5.1,2.6,7.3,4.4c10.8,8.7,21.6,17.4,32.4,26.1c0.1,0.1,0.1,0.2,0.1,0.4c-1.1-0.8-2.3-1.5-3.4-2.3
		c-9.8-7.1-19.7-14.2-29.5-21.4c-4.7-3.5-10-4.6-15.6-5.1c-11.2-0.9-22.4-1.9-33.7-2.8c-8.9-0.7-17.8-1.4-26.7-2.1
		C119.9,153.8,119.2,153.7,118.2,153.6z"/>
	<path class="st0" d="M306.5,239.5c10.9,0.1,17.6,8.8,17,18.2c-0.6,8.9-8,16.8-17.8,16.6c-11.4-0.2-17.5-9.7-17.2-17.8
		C288.8,246.8,297.1,239.1,306.5,239.5z M318.1,256.7c0-8.2-6.2-14.5-14.4-14.6c-7.6,0-14.1,6.6-14.1,14.4c0,8.1,6.3,14.9,13.8,14.9
		C311.5,271.5,318.1,264.9,318.1,256.7z"/>
	<path class="st0" d="M176.9,269.7c-6.3-4.3-12.2-8.4-18.1-12.6c-2-1.4-2-1.6-0.7-3.7c1.4-2.1,3-4.1,4.5-6.1c0.9-1.3,1.9-1,2.9-0.2
		c3.6,2.8,7.2,5.5,10.8,8.3c1.4,1.1,2.8,2.2,4.2,3.2c0.6,0.4,0.8,0.8,0.5,1.5C179.7,263.3,178.3,266.4,176.9,269.7z"/>
	<path class="st0" d="M446,187.5c1.3-0.6,2.4-1.1,3.8-1.8c7.9,18.5,15.7,36.9,23.6,55.4c-1.4,0.6-2.7,1.1-4,1.6
		C461.6,224.4,453.8,206,446,187.5z"/>
	<path class="st0" d="M421,129.9c1.4-0.6,2.7-1.1,4.2-1.8c7,16.4,14,32.7,21,49.2c-1.4,0.5-2.8,1-4.3,1.6
		C434.9,162.5,428,146.2,421,129.9z"/>
	<path class="st0" d="M244.6,235.4c3.5,1.7,3.5,1.7,5.9-0.1c-0.3-0.5-0.7-1-1-1.5c-0.3-0.5-0.7-1-0.9-1.7c0.6,0.3,1.2,0.7,1.8,1
		c2.1,1,3.2,0.2,3.1-2.1c0-0.4-0.1-0.8-0.2-1.6c2.1,0.9,4.1,1.7,6.2,2.6c-0.9,2-1.8,3.9-2.7,5.8c-0.2,0.5-0.5,1-0.7,1.6
		c-0.3,1.3-1.1,1.8-2.4,2c-2.9,0.6-3.6,1.6-3.6,4.6c0,0.4-0.3,0.9-0.6,1.1c-2.1,1.3-4.3,2.6-6.4,3.8c-0.8,0.5-1.4,0.5-2.2-0.1
		c-1.8-1.3-3.7-2.5-5.8-3.8c1.8-0.9,2.2-2.4,1.4-4.4c1.8,0.9,3.3,2.2,4.8,0.2c1.3-1.7-0.5-2.6-1-4.1c1.1,0.5,2,0.9,2.9,1.3
		c1,0.5,1.7,0.2,2.4-0.5c0.8-0.8,0.5-1.4,0-2.1C245.4,236.9,245.1,236.3,244.6,235.4z"/>
	<path class="st0" d="M203,265.5c-1.7-1.9-3.3-3.7-5-5.6c-7.8-8.7-16.4-16.5-27-21.7c-7.4-3.6-15.3-5.4-23.5-5.6
		c-10.2-0.3-19.9,1.8-29.2,6c-0.2,0.1-0.3,0.1-0.6,0.2c6.7-6.5,30.4-9.8,44.7-6.1c18.4,4.8,32,15.9,41,32.5
		C203.3,265.3,203.2,265.4,203,265.5z"/>
	<path class="st0" d="M243.4,275.5c-2.7,1.8-5.2,3.4-8,5.2c-0.7-2.3-1.4-4.4-2.1-6.5c-0.8-2.5-1.7-5-2.4-7.5
		c-0.4-1.5-1.1-1.8-2.6-1.5c-4.3,0.7-8.7,1.1-13,1.9c-2.9,0.5-5.5-0.3-8.2-1.4c8.9-1.4,17.7-3.4,26.9-4.5c-0.2,1.3-0.3,2.1-0.5,3
		c-0.1,0.8-0.3,1.6-0.6,2.7c1.8-0.6,3.2-1.1,5-1.7C239.8,268.5,241.5,271.9,243.4,275.5z"/>
	<path class="st0" d="M264.1,226.3c-0.9-0.5-2-1.1-3.4-1.8c3.4-4,6.6-7.8,9.9-11.7c-2.2-0.8-4.5-1.7-6.9-2.5
		c-6.7-2.4-13.3-5-20.1-7.3c-2.2-0.7-4.6-1-6.9-1c-6.6-0.1-13.3,0.1-19.9,0.1c-0.4,0-0.8,0-1.3-0.3c1.9-0.2,3.9-0.5,5.8-0.7
		c5-0.4,10.1-1,15.1-1.1c2.9,0,5.8,0.6,8.6,1.5c10,3.3,19.9,6.8,29.8,10.2c0.7,0.2,1.3,0.5,2.2,0.9c-1.9,1.8-3.7,3.4-5.6,5.1
		c-1.4,1.3-3,2.5-4.3,4C266.1,223.1,265.3,224.7,264.1,226.3z"/>
	<path class="st0" d="M358,161.2c-1.5-2.6-2.9-5.2-4.5-7.8c-2.5-4.2-5.5-8.1-9.5-10.9c-7.1-5-14.7-5.9-22.9-3
		c-8.1,2.8-15.2,7.5-22.5,12c-3.2,2-6.3,4-9.4,6c-0.3,0.2-0.7,0.4-1.2,0.4c1.9-1.5,3.7-3,5.7-4.4c6.8-4.6,13.7-9.3,20.7-13.7
		c4.7-2.9,9.8-4.8,15.4-4.9c5.6,0,10.6,1.7,15,5.2c5.4,4.3,8.7,10,11.5,16.1c0.7,1.6,1.4,3.3,2.1,5
		C358.2,161.1,358.1,161.1,358,161.2z"/>
	<path class="st0" d="M283.2,206.8c-0.6,0.6-1.2,1.1-1.7,1.6c-0.6,0.7-1.3,0.8-2.2,0.5c-8.6-2.7-17.2-5.5-25.8-8.1
		c-4.5-1.4-9-2.8-13.5-3.6c-3.6-0.7-7.4-0.4-11.1-0.6c-2-0.1-4.1-0.3-6.1-0.7c3.2-0.2,6.4-0.3,9.6-0.5c1.5-0.1,3.1-0.1,4.6-0.3
		c3.1-0.5,6-0.1,8.9,0.8c12.2,3.6,24.5,7.3,36.7,10.9C282.7,206.6,282.8,206.6,283.2,206.8z"/>
	<path class="st0" d="M179,302.4c5.4-0.2,10.5-0.4,15.6-0.6c0.5,2.8-2.1,7.4-4.9,8.6c-3,1.3-6.1,1.5-9.2,1.2c-0.3,0-0.9-0.6-0.9-0.9
		C179.3,308,179.2,305.3,179,302.4z"/>
	<path class="st0" d="M473.8,252.1c1.2-0.5,2.3-0.9,3.6-1.5c3.8,8.8,7.6,17.6,11.5,26.5c-1.2,0.5-2.3,0.9-3.5,1.4
		C481.5,269.7,477.7,261,473.8,252.1z"/>
	<path class="st0" d="M161.4,242.1c-2.8,3.5-5.4,6.9-8.2,10.1c-1.6,1.9-2.8,1.7-3.8-0.7c-2.3-5.9-0.5-9.8,5.3-11.6
		c0.8-0.3,1.9,0,2.8,0.3C158.8,240.7,160,241.4,161.4,242.1z"/>
	<path class="st0" d="M500.6,299.7c3.8,0,7,3.2,7,6.9c0,4.1-3.2,7.4-7,7.4c-3.8-0.1-7.2-3.6-7.2-7.5
		C493.4,302.8,496.7,299.7,500.6,299.7z M504.8,307c0-2.6-1.8-4.5-4.4-4.5c-2.4,0-4.2,1.9-4.1,4.5c0,2.4,1.8,4.1,4.2,4.1
		C503.1,311.2,504.8,309.5,504.8,307z"/>
	<path class="st0" d="M522.6,299.8c2.5,4.1,3.1,9.3,1.6,14.2c-2.6-1-5.1-2-7.7-3c-0.3-0.1-0.5-0.6-0.5-0.9c0.1-2.3,0.2-4.6,0.4-6.9
		c0-0.4,0.6-0.9,1-1.1C519.1,301.3,520.8,300.6,522.6,299.8z"/>
	<path class="st0" d="M141.3,297.7c-3.7,0-6.9-3.3-7-7.2c0-3.6,3.2-6.9,6.9-6.9c3.8,0,7.1,3.3,7.1,7.1
		C148.2,294.5,145,297.6,141.3,297.7z M141.2,294.8c2.7,0,4.4-1.6,4.4-4.2c0-2.3-2.1-4.4-4.3-4.4c-2.5,0-4.4,1.9-4.4,4.3
		C137,293.1,138.7,294.8,141.2,294.8z"/>
	<path class="st0" d="M472.6,265.5c1.2,2.8,2.3,5.4,3.3,7.6c-2.5,1.9-4.8,3.6-7.1,5.4c-1.1,0.8-1.9,0.7-2.5-0.4
		c-0.8-1.4-1.4-2.9-2-4.4c-0.1-0.3,0.2-0.8,0.4-1.1C466.8,269.8,469.6,267.7,472.6,265.5z"/>
	<path class="st0" d="M486.6,330.4c4.7,1.1,9.1,2.2,13.8,3.3c0,1.4,0,3.2,0,5.3c-2.1-0.3-4.2-0.4-6.2-0.9c-2.4-0.6-4.7-1.3-6.9-2.3
		c-2.3-1-2.4-1.6-1.4-3.8C486.1,331.4,486.4,330.7,486.6,330.4z"/>
	<path class="st0" d="M500.4,323.1c0,2.5,0,4.8,0,7.4c-1,0-1.9,0-2.7-0.2c-2.6-0.6-5.2-1.3-7.9-2.1c-1.1-0.3-1.1-1-0.5-1.8
		c1.1-1.5,2.1-3.1,3.1-4.6c0.5-0.7,0.9-0.9,1.8-0.6C496.1,322,498.2,322.5,500.4,323.1z"/>
	<path class="st0" d="M521.5,324.7c1.1,0.8,2.4,1.7,3.8,2.7c-3.5,4.2-8.5,6.3-13.2,9.2c-0.8-1.8-1.5-3.5-2.1-4.9
		C514,329.3,517.7,327,521.5,324.7z"/>
	<path class="st0" d="M512.4,317.3c2.2,1.7,4.3,3.3,6.4,5c-1.4,2.3-6.3,5.2-9.2,5.7c-0.5-2.3-1-4.6-1.4-6.9c-0.1-0.3,0.2-0.8,0.4-1
		C509.8,319.2,511,318.3,512.4,317.3z"/>
	<path class="st0" d="M477.8,329c-2.9-3.3-5.3-6.7-6.8-11c1.6-0.3,3.1-0.7,4.6-1c0.4-0.1,1,0.3,1.2,0.7c1.6,2.4,3.1,4.9,4.6,7.3
		C480.3,326.3,479,327.7,477.8,329z"/>
	<path class="st0" d="M511.9,284.7c-2.5-0.6-4.8-1.2-7.1-1.7c-0.8-0.2-1.3-0.6-1.3-1.4c0-1.4,0-2.8,0-4.6c2.4,0.8,4.4,1.4,6.4,2.1
		c2.8,1,2.7,1,2.3,3.9C512.1,283.4,512,284,511.9,284.7z"/>
	<path class="st0" d="M314.8,238c-8.7-3.5-16.5-2.4-23.4,3.2c-7,5.7-8.9,13.4-6.9,22.1c-2.8-5.3-1.6-15.9,5.2-22.3
		C296.4,234.6,308,233.1,314.8,238z"/>
	<path class="st0" d="M483.6,322.9c-1.5-2-3-4-4.6-6.1c3.4-0.7,6.6-1.3,9.7-1.9c1.3,2.1,1.3,2.2-0.6,3.8
		C486.7,320,485.3,321.3,483.6,322.9z"/>
	<path class="st0" d="M531.2,315.3c-1.4-0.2-2.7-0.4-3.6-0.6c0-3.1,0-5.9,0-8.8c0-1.3,0.5-1.9,1.8-1.9c0.5,0,1-0.1,1.7-0.1
		C531.2,307.6,531.2,311.3,531.2,315.3z"/>
	<path class="st0" d="M516.7,287.8c1.2-1.3,2.4-2.5,3.6-3.7c1.7,2,3.2,3.8,4.6,5.6c0.2,0.3,0.2,0.9,0,1.2c-0.8,1-1.6,2-2.5,3
		C520.5,291.9,518.7,289.9,516.7,287.8z"/>
	<path class="st0" d="M475.5,305.4c3.5-0.3,6.6-0.6,9.8-0.8c0.3,0,0.9,0.4,1,0.8c0.1,0.3-0.2,1-0.5,1.2c-2.4,1.6-5.1,2.6-8,2.9
		c-0.3,0-0.7-0.2-0.9-0.5C476.5,307.9,476.1,306.9,475.5,305.4z"/>
	<path class="st0" d="M503.5,285.3c2.5,0.6,4.8,1.1,7.6,1.8c-1.5,2-2.6,3.7-3.9,5.3c-0.7,0.9-1.6,0.7-2.1-0.2
		c-0.6-1.1-1-2.3-1.3-3.6C503.5,287.7,503.6,286.7,503.5,285.3z"/>
	<path class="st0" d="M515.4,290.7c1.6,1.7,3.1,3.3,4.7,5c-2.2,1.6-4.2,2.8-6.9,2.8C512.9,295.6,513.9,293.2,515.4,290.7z"/>
	<path class="st0" d="M184.1,317.7c0.1,1.4,0.2,2.6,0.3,4.2c-3.2-0.9-6.1-1.7-9-2.5c0-0.2,0.1-0.4,0.1-0.5
		C178.1,317.1,181.1,317.8,184.1,317.7z"/>
	<path class="st0" d="M139.8,271.7c-3.3,2.5-6.6,5-9.9,7.6c-0.9-0.7-1.1-1.9-0.2-2.5c2.4-1.8,5-3.4,7.7-4.9c0.6-0.4,1.5-0.3,2.3-0.5
		C139.7,271.5,139.8,271.6,139.8,271.7z"/>
	<path class="st0" d="M155.7,252c2.1-3.2,4.2-6.3,7.2-8.7c0.9,0.4,1.1,0.8,0.5,1.6c-1.8,2.2-3.5,4.5-5.4,6.7c-0.4,0.5-1.3,0.6-2,0.9
		C155.9,252.3,155.8,252.2,155.7,252z"/>
	<path class="st0" d="M124.1,291.1c0.3-1.5,0.5-3.1,0.9-4.6c0.4-1.6,0.9-3.1,1.4-4.7c2.3,0.3,2.4,0.6,1.6,2.7
		c-0.5,1.3-0.9,2.7-1.5,4c-0.4,1-1,1.9-1.6,2.8C124.7,291.3,124.4,291.2,124.1,291.1z"/>
	<path class="st0" d="M230.7,243.5c-3.6-0.9-6.9-5.8-6.9-10.3C226.1,236.6,228.4,240.1,230.7,243.5z"/>
	<path class="st0" d="M246.9,298.3c0,0.9-1.1,2.1-2,2.1c-1,0-2.3-1.4-2.3-2.6c0-1,1-1.9,2-1.9C245.7,295.9,246.8,297.1,246.9,298.3z
		"/>
	<path class="st0" d="M424.2,110.2c0.8-3,8.1-12.7,10.2-13.5C430.9,101.3,427.5,105.7,424.2,110.2z"/>
	<path class="st0" d="M271.3,297.7c0,0.8-0.7,1.4-1.9,1.4c-1.2,0-2-0.8-2-2.1c0-1.1,1-2.1,2-2C270.4,295,271.3,296.1,271.3,297.7z"
		/>
	<path class="st0" d="M235.7,224.3c1.7,2.3,3.1,4.3,4.5,6.2c0.1,0.2,0,0.5,0,0.7c-0.3,0-0.6,0-0.8,0
		C237.1,230.4,235.4,227.3,235.7,224.3z"/>
	<path class="st0" d="M514.3,314.7c2.4,1.1,4.9,2.2,7.5,3.4c-0.4,0.7-0.7,1.2-1.1,2c-2.3-1.7-4.5-3.3-6.7-4.9
		C514.1,315.1,514.2,314.9,514.3,314.7z"/>
	<path class="st0" d="M239.2,221.5c1.7,2.1,4.1,3.5,5.5,6C242.1,227.8,239.7,225.1,239.2,221.5z"/>
	<path class="st0" d="M128.1,303.9c-0.7-1-1.3-1.9-2-2.7c-0.7-0.9-0.1-1.4,0.6-1.8c0.7-0.5,1.5-0.6,2.1,0.3
		C129.6,300.9,129.5,302.1,128.1,303.9z"/>
	<path class="st0" d="M471.6,294.2c0.9-1.1,1.9-2.2,2.9-3.2c0.2-0.2,0.8-0.2,1.2-0.2c0,0.5,0.3,1.2,0.1,1.5
		C475,293.7,473.6,294.4,471.6,294.2z"/>
	<path class="st0" d="M523.8,324.1c0.2-0.6,0.3-1.1,0.5-1.5c0.2-0.4,0.6-1,0.9-1c0.7,0,1.3,0.3,2,0.6c0.1,0,0.1,0.8-0.1,1
		C526.2,324.1,525.1,324.3,523.8,324.1z"/>
	<path class="st0" d="M163.6,320.1c1.7-0.4,3.5-0.8,5.2-1.1c0.3,0,0.6,0.4,0.9,0.6c0,0.2-0.1,0.3-0.1,0.5c-2,0.2-3.9,0.3-5.9,0.5
		C163.7,320.5,163.6,320.3,163.6,320.1z"/>
	<path class="st0" d="M481.4,297.5c-2.7,0.9-3.7,0.2-3.5-2.7C479.1,295.8,480.2,296.6,481.4,297.5z"/>
	<path class="st0" d="M494.4,346.6c0.7-0.5,1.4-1.4,2-1.3c0.6,0,1.1,1.1,1.7,1.7c-0.1,0.2-0.2,0.3-0.3,0.5c-1.1-0.1-2.2-0.2-3.2-0.2
		C494.6,347,494.5,346.8,494.4,346.6z"/>
	<path class="st0" d="M474.9,280.7c1.3-0.1,2.2-0.2,3.1-0.3c0.1,0.1,0.2,0.2,0.3,0.4c-0.5,0.8-1,1.6-1.8,2.8
		C475.9,282.4,475.5,281.7,474.9,280.7z"/>
	<path class="st0" d="M526,285.6c-1.9-0.1-2.7-1.1-2.3-2.9C525.5,282.9,526.3,284,526,285.6z"/>
	<path class="st0" d="M494,343.4c-0.4,0.7-0.9,1.4-1.4,2.2c-1.2-0.5-1.9-1.3-1.3-2.2c0.3-0.5,1.6-0.3,2.4-0.4
		C493.8,343,493.9,343.2,494,343.4z"/>
	<path class="st0" d="M519.4,340c0.1,1.6-0.9,2.8-1.9,2.7c-0.2,0-0.5-0.2-0.6-0.4c-0.1-0.2-0.1-0.7,0.1-0.8
		C517.7,341,518.5,340.6,519.4,340z"/>
	<path class="st0" d="M231,229.1c1.2,2,2.3,3.7,3.5,5.6C232.1,233.5,231.4,231.5,231,229.1z"/>
	<path class="st0" d="M468.8,326.8c-0.5-0.8-1.6-1.4-0.6-2.4c0.2-0.2,1.2,0,1.4,0.3C470.2,325.4,469.9,326.2,468.8,326.8z"/>
	<path class="st0" d="M510.8,270c0.6,0.1,1.3,0.1,1.8,0.4c0.3,0.2,0.3,0.9,0.5,1.4c-0.5,0-1.1,0.3-1.4,0.1c-0.5-0.3-0.8-1-1.2-1.5
		C510.6,270.3,510.7,270.2,510.8,270z"/>
	<path class="st0" d="M127.6,275.7c-0.6,0.3-1.2,0.7-2,1.2c-0.1-0.9-0.2-1.7-0.3-2.7c1.1,0.4,1.8,0.7,2.5,0.9
		C127.7,275.3,127.7,275.5,127.6,275.7z"/>
	<path class="st0" d="M483.6,328.3c1,1.6,0.6,2.7-1.4,3.3C482.7,330.5,483.1,329.4,483.6,328.3z"/>
	<path class="st0" d="M472.6,281.2c1.4,1.1,1.4,2,0.6,2.8c-0.2,0.2-0.7,0.2-1.1,0.2C472.3,283.3,472.4,282.4,472.6,281.2z"/>
	<path class="st0" d="M509.8,276.7c-0.6-0.4-1.3-0.9-2.1-1.4c0.7-0.6,1.2-0.9,2-1.5c0.2,1.1,0.4,1.9,0.6,2.7
		C510.1,276.6,509.9,276.6,509.8,276.7z"/>
	<path class="st0" d="M467.9,329.6c1.9-0.2,2.5,0.5,2.2,2.7C469.2,331.2,468.5,330.4,467.9,329.6z"/>
	<path class="st0" d="M483,341.4c-0.6-0.4-1.2-0.8-1.8-1.2c0.6-0.6,1-1.6,1.9-0.9C483.8,339.8,483.9,340.6,483,341.4z"/>
	<path class="st0" d="M509.5,271c-0.6,0.6-1,1-1.4,1.4c-0.3-0.4-0.8-0.8-0.8-1.2c0-0.5,0.6-0.9,0.9-1.3
		C508.5,270.2,508.9,270.5,509.5,271z"/>
	<path class="st0" d="M140.5,267.9c-0.5-0.4-1.2-0.8-1.4-1.3c-0.1-0.4,0.4-1,0.7-1.5c0.2,0,0.3,0,0.5,0c0.3,0.8,0.6,1.6,0.8,2.4
		C140.9,267.6,140.7,267.8,140.5,267.9z"/>
	<path class="st0" d="M536.8,309.7c0,0.5,0,1,0,1.9c-0.9-0.3-1.6-0.5-2.3-0.8c0.6-0.5,1.3-1,1.9-1.5
		C536.5,309.5,536.6,309.6,536.8,309.7z"/>
	<path class="st0" d="M533.8,300.5c0.3-0.7,0.5-1.3,0.9-2.2c0.7,0.6,1.1,1,1.8,1.7c-0.9,0.3-1.6,0.6-2.3,0.9
		C534,300.8,533.9,300.7,533.8,300.5z"/>
	<path class="st0" d="M121.6,283c-0.6,0.5-1.1,1.1-1.2,1.1c-0.6-0.3-1-0.8-1.5-1.3c0.3-0.3,0.6-0.8,0.8-0.7
		C120.3,282.3,120.8,282.6,121.6,283z"/>
	<path class="st0" d="M117.2,288.3c0.2,0.7,0.4,1.4,0.7,2.5c-0.8-0.2-1.3-0.3-1.8-0.4c0.2-0.7,0.4-1.5,0.6-2.2
		C116.9,288.3,117,288.3,117.2,288.3z"/>
	<path class="st0" d="M509.1,342.1c0-0.7,0.1-1.4,0.1-2.1c0.4,0.1,1.1,0.1,1.1,0.2c0,0.7-0.2,1.4-0.3,2
		C509.7,342.2,509.4,342.1,509.1,342.1z"/>
	<path class="st0" d="M537.4,313.7c0.1,0.9,0.2,1.7,0.2,2.6c-0.1,0.1-0.3,0.1-0.4,0.2c-0.4-0.5-1-0.9-1-1.4
		c-0.1-0.5,0.4-1.1,0.6-1.6C537,313.5,537.2,313.6,537.4,313.7z"/>
	<path class="st0" d="M474.4,277.7c0.9-0.7,1.6-1.3,2.4-1.9c0.3,0.7,0.4,1.2,0.7,1.9C476.5,277.7,475.6,277.7,474.4,277.7z"/>
	<path class="st0" d="M466,322.7c-0.4-0.5-0.8-0.9-1.1-1.4c0.1-0.2,0.1-0.3,0.2-0.5c0.7,0.1,1.4,0.2,2,0.4c-0.2,0.5-0.3,1.1-0.5,1.6
		C466.4,322.7,466.2,322.7,466,322.7z"/>
	<path class="st0" d="M124.2,309.4c-0.6-0.7-0.8-1-1.3-1.5c0.5-0.3,0.9-0.7,1.4-0.9c0.1-0.1,0.7,0.4,0.7,0.6
		C124.9,308,124.6,308.5,124.2,309.4z"/>
	<path class="st0" d="M536.2,293.5c0.2,1.1,0.4,1.9,0.6,3C534.9,295.5,534.7,294.6,536.2,293.5z"/>
	<path class="st0" d="M516.7,276.6c-0.3-0.4-0.6-0.8-1-1.4c0.5-0.3,0.8-0.6,1.3-0.7c0.1,0,0.5,0.5,0.5,0.7c0,0.5-0.2,1-0.3,1.6
		C517,276.6,516.8,276.6,516.7,276.6z"/>
	<path class="st0" d="M128.9,272.1c-0.5-0.6-0.9-1.1-1.4-1.7c0.3-0.2,0.6-0.5,0.9-0.7c0.4,0.6,0.8,1.2,1.2,1.9
		C129.3,271.8,129.1,272,128.9,272.1z"/>
	<path class="st0" d="M525.1,281.8c0.6-1.1,0.9-1.7,1.2-2.3c1.2,0.1,1.5,1,1.1,1.7C527.1,281.6,526.1,281.6,525.1,281.8z"/>
	<path class="st0" d="M474.5,297.5c0-1.4,0.5-2,1.5-1.7c0.2,0.1,0.4,0.5,0.5,0.7C475.8,296.8,475.1,297.1,474.5,297.5z"/>
	<path class="st0" d="M480.7,335.1c0,0.6,0.1,1.3-0.1,1.6c-0.3,0.4-1,0.4-1.6,0.5c-0.1-0.1-0.1-0.3-0.2-0.4c0.5-0.6,0.9-1.2,1.4-1.8
		C480.3,335.1,480.5,335.1,480.7,335.1z"/>
	<path class="st0" d="M130.9,267.1c1-0.6,1.6-1,2.3-1.5c0,0.9,0,1.5,0,2.3C132.5,267.6,131.9,267.4,130.9,267.1z"/>
	<path class="st0" d="M514,308.3c0.1-1.4,0.2-2.9,0.3-4.3c0.2,0,0.4,0,0.6,0.1c-0.1,1.4-0.3,2.9-0.4,4.3
		C514.3,308.4,514.1,308.4,514,308.3z"/>
	<path class="st0" d="M525.7,337.3c-0.5-1.7-0.1-2.1,2.1-2.3C527,335.9,526.4,336.5,525.7,337.3z"/>
	<path class="st0" d="M518.4,336.8c0.8-0.7,1.3-1.1,1.7-1.5c0.1,0,0.2,0,0.4,0.1c-0.2,0.7-0.4,1.3-0.5,2
		C519.5,337.2,519.1,337.1,518.4,336.8z"/>
	<path class="st0" d="M229.9,235.1c-1.6-0.8-2.2-2.3-2.4-3.9C228.2,232.5,229.1,233.8,229.9,235.1z"/>
	<path class="st0" d="M531.2,288.4c-0.4,0.5-0.7,0.9-1.1,1.4c-0.1,0-0.3,0-0.4,0c-0.1-0.4-0.3-1.1-0.1-1.3c0.3-0.3,0.9-0.4,1.4-0.5
		C531,288.1,531.1,288.3,531.2,288.4z"/>
	<path class="st0" d="M525.5,278.4c-0.7,0.1-1.3,0.4-1.4,0.2c-0.4-0.5-0.7-1.1-1-1.6c0.1-0.1,0.2-0.2,0.4-0.3
		C524.1,277.2,524.6,277.7,525.5,278.4z"/>
	<path class="st0" d="M505.7,334.2c-0.1-0.7-0.2-1.5-0.4-2.6c1.5,1,1.6,1.2,0.9,2.5C506.1,334.1,505.9,334.1,505.7,334.2z"/>
	<path class="st0" d="M473.4,335.5c-0.1-0.6-0.2-1.2-0.3-1.8c0.3-0.1,0.6-0.1,0.9-0.2c0.1,0.6,0.2,1.2,0.3,1.8
		C474,335.3,473.7,335.4,473.4,335.5z"/>
	<path class="st0" d="M148.8,265.4c-0.6,0.5-0.9,0.8-1.4,1.2c-0.3-0.6-0.5-1-0.6-1.5c0-0.1,0.4-0.4,0.5-0.4
		C147.8,264.9,148.2,265.1,148.8,265.4z"/>
	<path class="st0" d="M118.6,297.2c-1-0.6-1-1.3-0.1-2.7c0.3,1.1,0.5,1.8,0.7,2.5C118.9,297.1,118.8,297.1,118.6,297.2z"/>
	<path class="st0" d="M120.9,277.2c0.9,1.7,0.6,2.1-1.2,2.5C120.1,278.9,120.5,278.2,120.9,277.2z"/>
	<path class="st0" d="M498.9,342.8c0.6,0,1.3,0.1,2.3,0.2c-0.6,0.7-1,1.1-1.3,1.6c-0.4-0.5-0.7-0.8-1.1-1.2
		C498.8,343.2,498.8,343,498.9,342.8z"/>
	<path class="st0" d="M473.3,307.6c0.5,0.6,0.8,1,1,1.4c0.1,0.1-0.4,0.5-0.6,0.7c-0.3-0.3-0.8-0.6-1-1
		C472.6,308.6,473,308.2,473.3,307.6z"/>
	<path class="st0" d="M529.5,296.1c-0.4-0.4-0.7-0.7-1.1-1.2c0.4-0.3,0.8-0.6,1.5-1c0,0.9,0,1.5,0,2.1
		C529.8,296,529.6,296.1,529.5,296.1z"/>
	<path class="st0" d="M486.5,325.8c0.4-0.8,0.9-1.6,1.3-2.3c0.2,0.1,0.4,0.2,0.5,0.3c-0.4,0.8-0.8,1.6-1.2,2.4
		C487,326,486.7,325.9,486.5,325.8z"/>
	<path class="st0" d="M531,325.6c0.3,0.5,0.5,0.9,0.9,1.5c-0.8,0.1-1.4,0.1-2,0.2c-0.1-0.1-0.1-0.3-0.2-0.4
		C530.2,326.5,530.6,326.1,531,325.6z"/>
	<path class="st0" d="M464.3,317.3c-0.3-0.5-0.8-0.8-0.7-1.1c0-0.3,0.6-0.7,0.8-0.6c0.3,0,0.8,0.5,0.8,0.8
		C465.2,316.5,464.7,316.8,464.3,317.3z"/>
	<path d="M318.1,256.7c0,8.1-6.6,14.7-14.7,14.7c-7.5,0-13.8-6.8-13.8-14.9c0-7.8,6.5-14.5,14.1-14.4
		C311.8,242.2,318.1,248.5,318.1,256.7z"/>
	<path d="M504.8,307c0,2.4-1.7,4.2-4.3,4.2c-2.4,0-4.2-1.7-4.2-4.1c0-2.6,1.7-4.5,4.1-4.5C503,302.5,504.8,304.4,504.8,307z"/>
	<path d="M141.2,294.8c-2.6,0-4.3-1.7-4.3-4.2c0-2.4,1.9-4.3,4.4-4.3c2.2,0,4.3,2.1,4.3,4.4C145.7,293.2,144,294.8,141.2,294.8z"/>
</g>
</svg>
