<?xml version="1.0" encoding="utf-8"?>
<!-- Generator: Adobe Illustrator 24.1.1, SVG Export Plug-In . SVG Version: 6.00 Build 0)  -->
<svg version="1.1" id="Capa_1" xmlns="http://www.w3.org/2000/svg" xmlns:xlink="http://www.w3.org/1999/xlink" x="0px" y="0px"
	 viewBox="0 0 640 480" style="enable-background:new 0 0 640 480;" xml:space="preserve">
<style type="text/css">
	.st0{fill:#E9E9E9;}
	.st1{fill:#FEFEFE;}
	.st2{fill:#FFFFFF;}
	.st3{fill:#FDFDFD;}
	.st4{fill:#FBFBFB;}
	.st5{fill:#F9F9F9;}
	.st6{fill:#FCFCFC;}
	.st7{fill:#F8F8F8;}
	.st8{fill:#F1F1F1;}
	.st9{fill:#F4F4F4;}
	.st10{fill:#F6F6F6;}
	.st11{fill:#F7F7F7;}
	.st12{fill:#EFEFEF;}
	.st13{fill:#EBEBEB;}
	.st14{fill:#040404;}
	.st15{fill:#010101;}
	.st16{fill:#0F0F0F;}
	.st17{fill:#0B0B0B;}
</style>
<g>
	<path d="M500.3,183.8c12.1,4.6,24.8,7.6,36.1,14.1c14.9,8.4,27.5,18.9,31.2,36.8c0.8,3.7,2.5,8.3-0.9,11.3c-4,3.5-7.4-0.9-10.5-2.6
		c-20-10.9-40.4-20.2-63.4-22.3c-5.9-0.6-10.5-0.6-6.9,7.4c0.3,0.6,0.3,1.3,0.4,2c1.2,15.4,6.3,23.8,24.8,26.1
		c33.8,4.2,57.4,36,57.1,70.3c-0.4,34.8-25.3,63.6-60.7,70.1c-32,5.9-65.4-13.1-77.9-44.2c-12.8-31.7-1.4-68.2,27.3-86.9
		c13.8-9,14.4-11.7,6.4-28.6c-4.9,11.3-16.3,14.6-24.3,21.9c-3.2,2.9-5.8,5.3-4.9,10.8c1.4,9.1-3.8,15.6-12.6,17.6
		c-5.8,1.3-6.4,3.7-5.9,8.9c0.7,6.9,0.5,14,0.1,21c-0.7,12.5-8,19.9-20.3,20.1c-20.6,0.4-41.3,0.1-61.9,0.1
		c-6.7,0-12.3-2.5-16.6-7.7c-5-5.8-10-11.6-15-17.4c-6.4-7.6-14.4-9.9-23.9-7.3c-17.9,4.9-35.8,10.1-53.9,14.5
		c-6.1,1.5-7.4,4.2-7.7,10.1c-1.8,40.3-36.1,70.3-77.1,68.1c-38.6-2.1-68.9-37.2-66.4-76.9c2.5-38.9,37.5-69.7,76.7-66.6
		c24.4,1.9,43.4,13.7,56.6,34.4c2.9,4.5,17.5,4.9,20.2,0.5c0.7-1.1,0.3-3.2-0.2-4.6c-1.5-4.8-2.8-9.6-4.8-14.1
		c-5.2-11.7-3.8-21.8,5.8-30.7c2.9-2.7,6.5-5.4,3.8-11c-3.2-6.4-8.6-9-14.7-10.7c-3.9-1.1-3,2.2-3.3,4.3c-2.5,19.5-9.7,25.9-29.3,26
		c-22,0.1-44,0.1-65.9,0c-17.7-0.1-26.9-9.6-27.1-27.2c-0.1-8.7-0.1-17.3,0-26c0.1-19,9-28.2,27.8-28.8c1.8-0.1,3.6-0.2,8.2-0.5
		c-14-6.9-25.3-12.8-36.9-18.3c-10.9-5.1-15.2-14.2-16.9-25.3c-1-6.8,1.9-9.7,8.5-7.4c6,2.2,9.2,1.4,11-5.6
		c1.8-6.5,7.8-8.9,14.4-7.8c25.6,4.1,51.2,8.1,76.7,12.9c11.6,2.2,19.7,10,22.3,21.7c1.3,5.6,3.4,7.6,8.7,8.5
		c5.8,1,11,4.5,12.5,10.3c1.8,7,6.7,9.4,12.5,11.1c16.2,4.8,32.6,9.2,48.8,14c5.4,1.6,7-0.3,8.8-5.6c11.7-33.3,35.2-53.4,70-59.3
		c18.1-3.1,35.5,4.1,53.2,6.1c3.9,0.4,7.7,1.9,12.6,0.7c-3.9-9.6-1.7-22.7-17.2-24c-2-0.2-3.6-2.2-3-4.4c0.7-2.6,2.8-3.6,5.5-3
		c8.7,2.1,17,3.5,18.9,15.4c1.1,7,1.4,16,12,22c-4.1-13.2-7.5-24-10.8-34.8c-0.9-2.9-3.3-2.9-5.5-3.5c-4.5-1.1-9-2.3-13.6-3.3
		c-2.6-0.6-4.6-1.9-4.1-4.6c0.5-3.3,3.1-3.6,6.1-3.4c18,1.7,22.1,4.9,27.6,22.2c2.6,8.2,5.5,16.4,7.8,24.7
		c2.1,7.8,8.6,11.9,14.1,15.9c3.6,2.6,10.3,2.9,14-4.2c5.5-10.6,15.5-14.6,27-12.3c28.4,5.5,27.9,0.6,22.5,30.5
		c-1.2,6.5-2.7,13-3.5,19.6c-1,8.4-6,10.3-13.4,9c-4.2-0.7-8.5-1.2-12.8-1.8c-8.4,0-15.6-3.6-22.8-7.4
		C486.6,180.2,495.2,178.6,500.3,183.8z"/>
	<path class="st0" d="M500.3,183.8c-6-1.5-12.2-2.7-18.1-4.5c-2.1-0.7-5.8,0.2-6-3.7c-0.1-1.9-0.2-4.2,2.2-5
		c2.5-0.8,5.5-1.1,7.4,1.2c4.9,6.1,12,7.7,18.7,10.1C503.1,182.6,501.7,183.2,500.3,183.8z"/>
	<path class="st1" d="M366,238c-10.3,0-20.6,0.2-30.9-0.1c-19.6-0.6-34.2-15.6-34.7-35.3c-1-40.5,30.5-76.5,70.9-80.2
		c15.7-1.4,30.8,4.3,46.3,6.2c8.9,1.1,17.7,2.8,26.4,4.9c17.9,4.4,27.4,19.1,24.6,37.4c-6.2,40.4-36.8,66.9-77.7,67
		C382.7,238,374.3,238,366,238z"/>
	<path class="st2" d="M81,123c16.9,3.8,32.7,7.3,48.5,10.9c26.3,5.9,52.5,11.8,78.8,17.5c6.3,1.4,11.5,3.4,12.3,10.8
		c0.1,0.9,0.4,2.4,1,2.7c11.5,4.5,9,13.8,8.9,23c0,8.5,6.1,14.5,13,19c13.2,8.6,27.8,11,43,8.2c5.2-0.9,7.7-0.6,9.6,4.6
		c3.2,9.1,10,15.6,19,21.5c-14,11.2-27.7,22-41.2,33c-3.3,2.7-4.5,0.9-6-1.5c-10-16-23.2-30-30.5-47.7
		c-4.2-10.2-15.9-10.5-22.3-16.6c-6.3-5.9-6-17.8-16.2-22.2c-8.1-3.5-16.4-1.8-24.6-2.3c-3.5-0.2-7.6,1.4-10.4-1.8
		c-18.7-21.4-46.2-27.9-69.7-41.3C87.8,136.9,82.9,132.6,81,123z"/>
	<path class="st1" d="M494.7,264.5c2.5,3.4,4.5,4.3,7.4,2.3c7.6-5.6,12.4-4.5,17.2,4.1c1.3,2.4,2.6,3.4,5.5,2.5
		c7.9-2.4,13.2,1.5,13.5,9.8c0.1,2.8,0.7,4.3,3.6,4.9c10,2,12.5,6.2,9.2,15.6c-1.1,3,0.3,4.4,2.3,5.7c7.6,4.7,8.5,9.9,2.5,16.5
		c-2,2.2-2.1,3.8-0.6,6c5.4,8,4.5,11.9-4.3,17.1c-1.9,1.1-2.9,2.4-2.5,4.8c1.6,10.2-0.3,13.1-9.8,14.3c-2.8,0.4-3.9,1.4-4.4,4.2
		c-1.4,8.5-6.7,11.7-14.6,8.7c-2.6-1-4.2-0.9-5.8,1.7c-4.8,7.7-10.6,8.8-16.8,3.1c-2.1-1.9-3.7-2.5-6-1.1
		c-9.1,5.4-12.2,4.7-17.2-4.1c-1.4-2.5-3.1-3-5.7-2.3c-7.8,2-13.3-1.6-13.7-9.3c-0.1-3-0.2-4.9-3.9-5.4c-8.8-1.3-11.9-6.3-9-14.6
		c1.1-3.3,0.3-5.1-2.4-6.5c-7.7-4-9-10-3-16.2c2-2.1,2.6-3.6,1.1-5.9c-5.6-8.8-4.8-12,4.5-17.7c2-1.2,2.7-2.6,2.2-4.9
		c-2-9.6,0.6-13.4,9.8-14.3c3.4-0.3,5.2-2.1,4.2-5.1c-1.1-3.1,0.3-4.5,2.4-5.6c3.6-1.7,6.6-7.2,11.1-3.6c4.5,3.6,3.2,17.3-1.3,20.7
		c-15.1,11.3-21.1,26.7-17.4,44.8c3.5,17.3,14.5,28.8,31.9,33.4c22.5,6,46.1-7.1,53-29.3c7-22.6-5.5-47.2-27.8-54.7
		C497.3,280,497.3,280,494.7,264.5z"/>
	<path class="st1" d="M200.2,297c-2.5,0.8-5,1.6-7.4,2.5c-6.9,2.5-12,2.3-17.9-4.3c-13.4-15-35.7-17.1-53-6.9
		c-16.5,9.8-24.9,29.8-20.2,48.1c5.1,20,21.8,33.3,41.8,33.6c20.3,0.3,37.5-12.6,43-32c1.2-4.3,1.6-8,7.3-10.4
		c8.9-3.6,11.5,4.4,12.7,7.6c1.4,3.5,1.8,11.6-6,13.3c-3.1,0.7-5.3,2.1-4.1,5.3c3.9,10.3-1.1,13.7-10.3,14.2c-2.4,0.1-3.4,1.3-4,3.5
		c-2.5,10-6.1,12.2-15.1,9.1c-2.9-1-4.3-0.1-5.7,2.2c-4.4,7.3-10.4,8.5-16.5,2.7c-2.2-2.1-4-2.2-6.1-0.9c-8.9,5.4-11.8,4.8-17-4.2
		c-1.4-2.5-3.1-2.9-5.7-2.2c-7.7,2.1-13.3-1.7-13.6-9.3c-0.1-2.5,0.3-4.4-2.9-5.3c-11.4-3.1-12.4-4.9-9.5-16.1
		c0.6-2.4-0.2-3.8-2.1-5c-8.9-5.3-9.4-7.8-2.7-17c1.4-1.9,1.3-3.5,0-5.3c-5.5-7.9-4.5-13,3.8-17.3c2.3-1.2,3.6-2.4,2.9-5.4
		c-2-8.5,1.3-13,9.9-13.7c2.8-0.2,4.1-1.2,4.7-3.9c2-9.5,5.7-11.5,15.4-8.5c2.9,0.9,4.5-0.4,5.7-2.5c4.6-7.8,10.2-9,16.4-3
		c2.1,2,3.6,2.6,5.9,1.1c8.8-5.7,11.6-5,17.7,4.5c1.2,1.9,2.6,2.7,4.9,2.2c9.4-2.1,13.6,0.8,13.9,9.8c0.1,2.8,1,4.2,3.9,4.7
		C197.4,289.4,197.4,289.5,200.2,297z"/>
	<path class="st3" d="M151.9,240.5c-11.9,0-23.9-0.1-35.8,0c-8.3,0-14.1-3.7-16.8-11.4c-3.7-10.5-1-14.2,10.1-14.2
		c10,0,19.9,0,29.9,0c4.2,0,8.2-1.1,9.4,5.6c0.8,4.6,5.8,4,6.6-0.2c1.1-5.9,4.5-5.4,8.5-5.4c11.6,0.1,23.2,0.2,34.8-0.1
		c4.5-0.1,6.4,1,6.5,6c0.2,12.5-5.7,19.4-18.3,19.6C175.1,240.7,163.5,240.5,151.9,240.5z"/>
	<path class="st3" d="M275.8,297.6c-33.3,9-65.2,17.7-97.2,26.3c-8,2.2-16,4.2-24,6.5c-4,1.1-7.5,1-8.7-3.7
		c-1.3-4.6,1.8-6.6,5.7-7.7c37.4-10.2,74.7-20.4,112.1-30.7C270.8,286.4,271.2,293.1,275.8,297.6z"/>
	<path class="st3" d="M475.4,185.2c32.3,11.8,67.7,13.7,83.4,49.1c-17.4-7.2-34.2-15.6-52.8-19c-1.3-0.2-2.6-0.8-3.9-0.9
		c-6.3-0.5-12.6-0.8-18.9-1.3c-0.6-0.1-1.2-1.5-1.5-2.4C479.8,203,477.9,195.3,475.4,185.2z"/>
	<path class="st4" d="M500.9,291.1c18.3,2.7,30.7,15.9,31.3,33.1c0.7,17.4-10.7,32.5-27.6,36.8c-16.2,4-33.3-4.2-40.6-19.6
		c-7.9-16.6-3-33.8,13.1-45.4c3.6,4.4,2.2,7.5-1.4,11.6c-11.5,13-9.4,31.2,4.2,41.1c13,9.5,31.5,5.8,40.1-8
		c8.9-14.5,3.5-32.6-12.7-40.1C502.5,298.4,500.7,295.9,500.9,291.1z"/>
	<path class="st3" d="M376.6,316.5c-11.9,0.1-21.7-9.6-21.6-21.3c0.1-11.2,9.8-20.8,21-21c11.7-0.1,21.4,9.7,21.4,21.5
		C397.5,307.2,388.2,316.4,376.6,316.5z"/>
	<path class="st4" d="M172.5,304.3c-4.5,2.6-7.6,2.1-11.5-0.4c-14.7-9.7-31.4-6.5-40.1,7c-8.5,13.2-4.3,31,9.3,39.1
		c14,8.3,30,3.7,39-11.7c2.4-4.1,5.2-5.3,9.3-5.6c-1.5,15.4-14,27.4-30.1,29.1c-17.2,1.9-33-8.6-38.2-25.5c-5-16.2,2.1-33.6,17-41.7
		C142.7,286,160.1,289.6,172.5,304.3z"/>
	<path class="st1" d="M151.3,191.7c11.3,0,22.6-0.1,33.9,0.1c3.3,0,6.8,0.2,9.7,1.4c5.1,2,10.1,6.2,8.9,11.7
		c-0.9,4.3-6.8,1.8-10.5,2c-9.3,0.3-18.7-0.8-27.9,0.4c-6.9,0.9-10.5-6.7-13.9-5.9c-4.5,1.1-7.6,6.3-14.1,5.8
		c-10.9-0.9-21.9-0.5-32.9-0.2c-6.4,0.2-6.7-2.4-4.1-7c3.3-5.7,8.3-8.3,14.8-8.3C127.4,191.7,139.3,191.7,151.3,191.7
		C151.3,191.7,151.3,191.7,151.3,191.7z"/>
	<path class="st5" d="M309.4,307.5c13.2,0.8,25.4,1.7,37.7,2.4c2.4,0.1,4.1,0.8,5.9,2.7c18.3,18,35,16.1,49.9-5.3
		c0.7-1,1.9-1.7,3-2.7c5.2,18,0.3,24.7-18,24.8c-13.3,0-26.8-1.3-39.9,0.3C329.8,331.9,318.5,323.7,309.4,307.5z"/>
	<path class="st6" d="M198.4,140.9c-17.3-3.8-33.8-7.3-50.2-11c-14.3-3.2-28.5-6.5-42.8-9.6c-3.5-0.8-8-0.4-6.7-6.1
		c1-4.7,4.5-5.1,8.5-4.4c17.7,3.1,35.4,6.1,53.1,9.1c5.9,1,11.9,1.7,17.8,2.5C188.9,122.8,195.3,129,198.4,140.9z"/>
	<path class="st6" d="M488.1,153.7c0.7-16.8,9.6-23.9,26-20.9c15.1,2.7,15.1,2.7,12.5,18.1c-0.5,3.3-0.3,6.9-1.7,9.7
		c-2.5,5,3.1,15.4-7.5,14.7C495.2,173.9,487.5,167.5,488.1,153.7z"/>
	<path class="st3" d="M276.2,208c-10.7-0.4-20.6-2.7-29.2-8.9c-4.4-3.2-7.9-7.1-8.6-12.8c-1.1-8.6,2-11.2,10.3-8.9
		c12.1,3.4,24.1,7.3,36.4,9.6c8.2,1.5,7,6,7.5,11.8c0.7,7.5-3.8,7.9-8.8,8.7C281.3,207.9,278.6,207.9,276.2,208z"/>
	<path class="st6" d="M237.1,241.7c7.8,11.3,15.1,22.2,22.8,33c2.8,3.9,3,5.6-2.3,7.3c-21.9,6.9-21.1,6.8-29.2-14.6
		C224.1,256,228.3,249.1,237.1,241.7z"/>
	<path class="st3" d="M335.7,273.2c-2.1,2.5-4.4,5.2-6.8,7.9c-12.5,14.5-12.5,14.5-23.1-0.6c-10.7-15.1-10.2-17.1,6.2-26.8
		c0.8-0.5,1.6-1.3,2.5-1.5C316,251.9,335.6,271.1,335.7,273.2z"/>
	<path class="st5" d="M470.3,197.6c5.2,21.9,10.3,43.2,15.2,64.4c4.5,19.4,9,38.8,13.5,58.2c0.7,3.1,3.2,7.3-1.6,8.2
		c-4.4,0.8-4.4-4-5.1-7.1c-8.6-36.8-17.1-73.7-25.7-110.5C465.5,206.2,465.7,202,470.3,197.6z"/>
	<path class="st7" d="M159.8,337.8c-9.2,9.2-18.5,10.4-27.1,4.2c-8.2-5.9-10.7-16.9-5.8-25.7c5.1-9.3,15-12.3,27.7-7.5
		c-9.7,3.9-20,7.3-16.4,20.2C141.2,340,150.1,339.7,159.8,337.8z"/>
	<path class="st5" d="M505.2,308.6c11.8,8.2,14.4,19.4,7.1,29.3c-6.5,8.8-18.5,10.7-27.4,4.4c-9.8-6.9-11.2-17.9-3.5-28.6
		c5.8,8,0.7,26.9,18.3,22.5C515.7,332.2,504.6,318.6,505.2,308.6z"/>
	<path class="st7" d="M309.5,299.3c-12.7,0.1-23.1-1-30.7-10.8c-6.6-8.7,3.2-9.2,6.1-13c3.4-4.5,6-2.7,8.7,1.3
		C298.4,284.1,303.7,291.2,309.5,299.3z"/>
	<path class="st8" d="M152.6,183c-18.6,2.8-36.5-3.4-53.6,5.6c1.2-7.9,5.9-13.5,12.5-13.5C125,175.1,140.3,168.3,152.6,183z"/>
	<path class="st9" d="M400.8,279.7c-0.8-1-1.4-2.5-2.5-3.1c-11.1-6.4-7.8-11.6,0.1-18.7c13.4-12.1,13-12.6,34.9-5.2
		c-2.3,3.3-3.8,6.3-9,3.9c-6.5-3-13.1-2-18.3,3.4c-5.7,5.9-6.2,12.8-2.5,20.1C402.6,280.8,401.6,280.7,400.8,279.7z"/>
	<path class="st4" d="M321.4,244.2c13.1,2.6,24.6,1.3,36,1.9c0.1,0.8,0.4,1.6,0.2,1.9C341.4,268.8,339.3,268.7,321.4,244.2z"/>
	<path class="st10" d="M323.1,300.1c6-6.9,11-12.4,15.7-18.2c2.6-3.2,4.5-2.7,7.1,0c5.7,5.9-0.1,12.5,1,18.8
		c0.3,1.9-5.7,0.9-8.7,0.8C333.7,301.3,329.2,300.7,323.1,300.1z"/>
	<path class="st11" d="M366.8,249.9c1.3,2.6,2.2,4.2,3,5.8c3,6.1,6.2,11.9-4.9,13.3c-3.2,0.4-6.2,3.6-8.9,5.9
		c-1.9,1.7-3.2,2.9-5.5,0.6c-2.3-2.3-2.8-4-0.3-6.6C355.7,262.9,361,256.6,366.8,249.9z"/>
	<path class="st7" d="M426.5,270.6c-0.3,6-3,9.4-8.6,9.4c-5.1,0.1-8-3.1-8.3-8c-0.3-5,2.4-8.3,7.4-8.8
		C422.5,262.7,425.5,265.8,426.5,270.6z"/>
	<path class="st5" d="M381.2,262c-2.1-4.8-4.2-9.8-6.7-15.5c8.1,0,15.4,0,22.2,0C392,251.2,387,256.2,381.2,262z"/>
	<path class="st12" d="M448.8,240.7c5-21.2,5-21.2,10.2-25C462.6,226.6,460.7,231.6,448.8,240.7z"/>
	<path class="st13" d="M441.7,231.3c0,15.9,0,15.9-17.8,10.1c1.9-3,5.5-3.2,8.1-4.9C434.7,234.7,437.7,233.3,441.7,231.3z"/>
	<path class="st12" d="M477.4,162.9c-0.4-5.3-3.4-8.7-1.1-12.7c0.2-0.4,3.3,0.1,3.3,0.3C479.9,154.3,481.4,158.3,477.4,162.9z"/>
	<path class="st2" d="M406.6,283.7c3.5,2.7,2.2,5.8-0.7,6.9c-2.2,0.8-1.2-2.8-1.8-4.3C403.5,284,404.6,283.4,406.6,283.7z"/>
	<path class="st14" d="M312.4,198.5c1-32.6,29.9-62.5,61.2-64.3c3-0.2,6.8-0.9,7.4,3c0.7,4.8-3.3,4.5-6.7,5.1
		c-31.3,5-51.2,25.9-53.8,56.3c-0.3,3.1,0.9,7.7-4,7.5C310.6,205.9,313.2,200.7,312.4,198.5z"/>
	<path class="st15" d="M414.5,184c-9.6,0-19.2,0-28.8,0c-2.8,0-5.6-0.3-5.6-4c0-3.7,2.8-4,5.6-4c19.5,0,39.1,0,58.6,0
		c2.8,0,5.6,0.5,5.7,4c0,3.4-2.8,4-5.6,4C434.4,184,424.4,184,414.5,184z"/>
	<path class="st16" d="M428.4,163.5c-5.3,0-10.6,0.1-15.9-0.1c-2.4-0.1-4.5-1.1-4.6-4.2c0-3.2,2.2-3.8,4.6-3.8
		c10.9-0.1,21.8-0.1,32.7,0c2.4,0,4.8,0.8,4.7,3.9c-0.1,2.9-2.3,4-4.7,4C439.7,163.7,434.1,163.5,428.4,163.5z"/>
	<path class="st17" d="M512.4,161.1c1-5,2.3-11.5,3.5-18c0.5-2.8,2.2-4.2,4.9-3.5c2.7,0.6,3.5,2.8,3.1,5.4c-1.2,6.5-2.5,13-3.7,19.5
		c-0.5,2.6-2,4.4-4.7,4.1C511.8,168.3,512,165.4,512.4,161.1z"/>
</g>
</svg>
