<?xml version="1.0" encoding="utf-8"?>
<!-- Generator: Adobe Illustrator 24.1.1, SVG Export Plug-In . SVG Version: 6.00 Build 0)  -->
<svg version="1.1" id="Capa_2" xmlns="http://www.w3.org/2000/svg" xmlns:xlink="http://www.w3.org/1999/xlink" x="0px" y="0px"
	 viewBox="0 0 612 792" style="enable-background:new 0 0 612 792;" xml:space="preserve">
<style type="text/css">
	.st0{stroke:#010202;stroke-miterlimit:10;}
</style>
<path class="st0" d="M210.4,389.8v52.6h-12l-25.2-15.5l-21.7-48.4C151.5,378.5,206.9,385.1,210.4,389.8z"/>
<path class="st0" d="M409.3,389.8v52.6h12l25.2-15.5l21.7-48.4C468.2,378.5,412.8,385.1,409.3,389.8z"/>
<path class="st0" d="M222,371.2h6.8v-16.5c0,0,81.2-111.7,163,0v16.8h8.7v-21.1c0,0-81.1-123.8-178.5-0.1V371.2z"/>
<path class="st0" d="M207.8,369.5h7.9v-19.1c0,0,94-129.5,188.8,0v19.5h10.1v-24.5c0,0-93.9-143.4-206.8-0.1V369.5z"/>
<path class="st0" d="M247.9,398.6c0,0,34.2,11.3,52,55.5c0,0-55.2-12.9-58.8-24.5c0,0,16.5,4,27.9,3.6c0.3,0,0.5-0.3,0.5-0.6
	l0.1-4.8c0-0.3-0.3-0.6-0.6-0.6c-4.4,0.2-32,0.5-39.7-18c0,0,11.9,7.9,33.2,9.1c0.3,0,0.6-0.2,0.6-0.6l0-2.8c0-0.3-0.2-0.5-0.5-0.6
	c-4.4-0.6-37.8-6.1-38.5-24.7c0.1,0,54.3,0,64.4,0c1.1,0,2.1,0.4,2.8,1.2c3.2,3.4,12.4,13.8,18.8,27.3c0,0.1,0.1,0.2,0.1,0.2V454
	c0,0-22.4-50.9-26.9-53.8c0,0,0,0-0.1,0C282.4,399.9,268.9,394,247.9,398.6z"/>
<path class="st0" d="M373.5,398.6c0,0-34.2,11.3-52,55.5c0,0,55.2-12.9,58.8-24.5c0,0-16.5,4-27.9,3.6c-0.3,0-0.5-0.3-0.5-0.6
	l-0.1-4.8c0-0.3,0.3-0.6,0.6-0.6c4.4,0.2,32,0.5,39.7-18c0,0-11.9,7.9-33.2,9.1c-0.3,0-0.6-0.2-0.6-0.6V415c0-0.3,0.2-0.5,0.5-0.6
	c4.4-0.6,37.8-6.1,38.5-24.7c-0.1,0-54.3,0-64.4,0c-1.1,0-2.1,0.4-2.8,1.2c-3.2,3.4-12.4,13.8-18.8,27.3c0,0.1-0.1,0.2-0.1,0.2
	l0,35.5c0,0,22.4-50.9,26.9-53.8c0,0,0,0,0.1,0C339,399.9,352.5,394.1,373.5,398.6z"/>
<path class="st0" d="M207.8,453.2h7.9V473c0,0.9,0.4,1.7,1.2,2.3l86.9,62.9c1.5,1.1,3.2,1.6,5,1.6h6v8.5h-12.1
	c-0.8,0-1.6-0.2-2.2-0.7L208.6,480c-0.8-0.6-0.8-2.1-0.8-3.1V453.2z"/>
<path class="st0" d="M414.9,453.2H407V473c0,0.9-0.4,1.7-1.2,2.3L319,538.2c-1.5,1.1-3.2,1.6-5,1.6h-6v8.5H320
	c0.8,0,1.6-0.2,2.2-0.7l91.9-67.7c0.8-0.6,0.8-2.1,0.8-3.1V453.2z"/>
<path class="st0" d="M222,453.2h6.8v16.6c0,0.7,0.4,1.4,1,1.9l74.5,52.5c1.2,0.9,2.8,1.4,4.3,1.4h5.1v7.1h-10.4
	c-0.7,0-1.4-0.2-1.9-0.6l-78.8-56.5c-0.7-0.5-0.7-1.7-0.7-2.6V453.2z"/>
<path class="st0" d="M399.6,453.2h-6.8v16.6c0,0.7-0.4,1.4-1,1.9l-74.5,52.5c-1.2,0.9-2.8,1.4-4.3,1.4h-5.1v7.1h10.4
	c0.7,0,1.4-0.2,1.9-0.6l78.8-56.5c0.7-0.5,0.7-1.7,0.7-2.6V453.2z"/>
</svg>
