<svg id="Capa_2" data-name="Capa 2" xmlns="http://www.w3.org/2000/svg" viewBox="0 0 318.28 267.73"><defs><style>.cls-1{fill:#ffffff;stroke:#ffffff;stroke-miterlimit:10;}</style></defs><path class="cls-1" d="M210.35,389.77v52.65h-12l-25.16-15.48-21.67-48.39S206.87,385.13,210.35,389.77Z" transform="translate(-150.7 -281.13)"/><path class="cls-1" d="M409.32,389.77v52.65h12l25.16-15.48,21.68-48.39S412.81,385.13,409.32,389.77Z" transform="translate(-150.7 -281.13)"/><path class="cls-1" d="M222,371.18h6.84V354.66s81.16-111.74,163,0v16.81h8.7V350.32s-81.08-123.76-178.5-.1Z" transform="translate(-150.7 -281.13)"/><path class="cls-1" d="M207.82,369.55h7.92V350.41s94-129.46,188.81,0v19.47h10.07V345.39s-93.94-143.38-206.8-.12Z" transform="translate(-150.7 -281.13)"/><path class="cls-1" d="M247.91,398.56s34.22,11.32,52,55.45c0,0-55.23-12.9-58.84-24.52,0,0,16.51,4,27.86,3.64a.57.57,0,0,0,.54-.56l.12-4.76a.58.58,0,0,0-.59-.58c-4.4.18-32,.51-39.67-18,0,0,11.9,7.85,33.2,9.12a.57.57,0,0,0,.6-.57V415a.56.56,0,0,0-.47-.56c-4.41-.65-37.77-6.15-38.49-24.71h64.38a3.82,3.82,0,0,1,2.78,1.2,110.74,110.74,0,0,1,18.78,27.33.54.54,0,0,1,.06.25V454s-22.43-50.89-26.95-53.79l-.06,0C282.43,399.85,268.87,394.05,247.91,398.56Z" transform="translate(-150.7 -281.13)"/><path class="cls-1" d="M373.48,398.58s-34.22,11.32-52,55.45c0,0,55.23-12.9,58.84-24.51,0,0-16.51,4-27.86,3.63a.57.57,0,0,1-.54-.56l-.12-4.76a.56.56,0,0,1,.58-.57c4.41.17,32,.5,39.68-18,0,0-11.9,7.85-33.2,9.12a.57.57,0,0,1-.6-.56V415a.56.56,0,0,1,.47-.56c4.41-.64,37.77-6.15,38.49-24.71H332.81A3.82,3.82,0,0,0,330,391a110.74,110.74,0,0,0-18.78,27.33.54.54,0,0,0-.06.25V454s22.43-50.89,26.94-53.79l.07,0C339,399.87,352.52,394.07,373.48,398.58Z" transform="translate(-150.7 -281.13)"/><path class="cls-1" d="M207.82,453.16h7.92V473a2.81,2.81,0,0,0,1.15,2.26l86.87,62.93a8.58,8.58,0,0,0,5,1.62h6v8.51H302.68a3.85,3.85,0,0,1-2.23-.7L208.6,480c-.82-.57-.78-2.09-.78-3.08Z" transform="translate(-150.7 -281.13)"/><path class="cls-1" d="M414.89,453.16H407V473a2.81,2.81,0,0,1-1.15,2.26L319,538.22a8.58,8.58,0,0,1-5,1.62h-6v8.51H320a3.85,3.85,0,0,0,2.23-.7L414.11,480c.82-.57.78-2.09.78-3.08Z" transform="translate(-150.7 -281.13)"/><path class="cls-1" d="M222,453.16h6.8v16.58a2.31,2.31,0,0,0,1,1.89l74.54,52.52a7.46,7.46,0,0,0,4.29,1.36h5.13v7.1H303.36a3.41,3.41,0,0,1-1.91-.58l-78.81-56.5c-.7-.47-.67-1.74-.67-2.56Z" transform="translate(-150.7 -281.13)"/><path class="cls-1" d="M399.65,453.16h-6.8v16.58a2.32,2.32,0,0,1-1,1.89l-74.54,52.52a7.46,7.46,0,0,1-4.29,1.36H307.9v7.1h10.35a3.38,3.38,0,0,0,1.91-.58L399,475.53c.69-.47.67-1.74.67-2.56Z" transform="translate(-150.7 -281.13)"/></svg>